<svg width="74" height="6" viewBox="0 0 74 6" fill="none" xmlns="http://www.w3.org/2000/svg">
<path d="M0.704854 0.525425C1.11953 0.460293 1.6631 0.529935 2.07621 0.625522C2.20568 0.655168 2.14012 0.787689 2.22949 0.81412C2.40429 0.865646 2.56713 0.800652 2.73987 0.862033C2.79712 0.883023 2.72586 1.09294 2.78588 1.11014C3.11482 1.20291 3.426 1.14944 3.75921 1.19406C5.40052 1.41421 7.01388 1.49301 8.67526 1.58865C9.22306 1.62001 9.88898 1.81051 10.4548 1.7272C10.5209 1.71729 10.4815 1.53304 10.494 1.51785C10.6912 1.28538 10.6256 1.65734 10.7543 1.70676C11.2651 1.90189 11.8331 1.91886 12.3247 1.84775C12.5338 1.81696 12.3241 1.45099 12.5347 1.6564C12.5493 1.67028 12.4963 1.86594 12.5536 1.88681C12.6837 1.93375 12.9304 1.89877 13.0312 1.91428C13.2255 1.94514 13.2577 1.94317 13.4414 1.9454C13.6926 1.95015 13.9914 2.04742 14.2609 2.00308C14.3184 1.99304 14.2423 1.79246 14.334 1.75833C14.4258 1.72426 14.6688 1.74126 14.7507 1.78854C14.8326 1.83585 14.7977 1.9935 14.8122 2.02963C14.9315 2.33462 15.2125 1.91221 15.2486 1.90176C15.9078 1.72377 16.4732 1.9644 17.092 1.96371C17.5617 1.96268 18.064 1.88324 18.511 1.89414C19.0436 1.90789 19.4949 2.01658 20.0122 1.99789C20.0668 1.99615 20.0028 1.76033 20.0695 1.75772C20.778 1.73028 21.4816 1.75599 22.187 1.91519C22.2577 1.93137 22.1666 2.13842 22.2372 2.16696C22.67 2.33712 23.3547 2.7459 23.6117 1.84439C23.9048 1.87959 24.2607 1.91597 24.5229 2.09769C24.692 2.21465 24.5278 2.44021 24.7355 2.34396C24.7823 2.32252 24.7214 2.12498 24.7917 2.10776C25.0874 2.03544 25.4106 2.09965 25.7032 1.99759C25.7627 1.97637 25.7464 1.79936 25.7633 1.76749C25.905 1.50936 26.1409 1.93607 26.1924 1.96707C26.584 2.19829 26.87 2.1073 27.2349 2.11295C27.3195 2.11436 27.2194 1.8766 27.3009 1.86942C27.7234 1.83534 28.1612 1.85578 28.5749 1.96127C28.6669 1.98531 28.5823 2.18784 28.6263 2.20969C28.8202 2.30356 28.8632 1.92105 29.0491 2.00369C29.0883 2.02063 29.0662 2.194 29.0734 2.21304C29.1853 2.51195 29.2826 2.08842 29.3114 2.07907C29.6755 1.95131 29.9083 2.39345 30.2601 2.33084C30.3022 2.3229 30.2073 2.10353 30.3256 2.09464C31.1138 2.03408 31.9474 2.09434 32.7276 2.26981C32.8489 2.29679 32.7623 2.46159 32.77 2.4819C32.8944 2.79932 32.9749 2.37402 33.0144 2.358C33.3265 2.24271 33.618 2.59937 33.83 2.09281C35.1515 2.2686 36.4669 1.98414 37.7775 2.43796C37.7941 2.44322 37.7643 2.65268 37.7975 2.66226C38.1978 2.77987 38.1209 2.45433 38.3858 2.05618C38.4525 1.95621 38.6555 2.4369 38.6735 2.47214C38.7389 2.60198 38.671 2.9136 38.6929 2.93875C38.8742 3.13621 38.8447 2.10565 39.0893 2.10532C39.0969 2.10704 39.0648 2.29672 39.0853 2.31558C39.1491 2.3748 39.2123 2.29942 39.2747 2.36472C39.4176 2.51581 39.4684 3.01657 39.6866 2.72513C39.7142 2.6873 39.672 2.10273 39.8904 2.13034C39.9774 2.14185 40.3628 2.13183 40.4708 2.16971C40.5786 2.20755 40.5046 2.39593 40.5123 2.40408C40.8029 2.65318 40.6927 2.75642 40.8383 3.12521C40.9839 3.49261 40.9435 2.61633 41.0029 2.51852C41.0624 2.421 41.2755 2.62652 41.3278 2.69797C41.3802 2.76945 41.3149 2.88915 41.3614 2.9296C41.67 3.19387 41.4969 2.49464 41.5985 2.35556C41.8382 2.02625 42.0249 2.6761 42.2444 2.73978C42.3038 2.75697 42.2553 2.60897 42.3082 2.59512C42.5176 2.54226 42.6436 2.74504 42.8818 2.55911C42.9208 2.52882 43.1134 2.13811 43.2381 2.42484C43.2557 2.46618 43.2055 2.62812 43.2948 2.6644C43.4281 2.71884 43.6683 2.75423 43.8117 2.7001C43.9175 2.66005 43.7962 2.39321 43.9294 2.47611C43.9886 2.51312 43.8789 2.66922 43.9901 2.72574C44.1007 2.78224 44.3835 2.77538 44.4911 2.76999C44.5986 2.76448 44.5398 2.56207 44.5484 2.54843C44.601 2.47032 44.8072 2.37272 44.8254 2.37296C45.7443 2.34825 46.5918 2.68943 47.4865 2.57651C47.5567 2.56794 47.5099 2.35449 47.5207 2.35098C47.761 2.26155 47.5715 2.82906 47.7394 3.01901C47.7152 2.58587 47.8143 2.66429 47.9836 2.61679C48.0652 2.59355 48.0208 2.42583 48.0282 2.40866C48.1492 2.15392 48.2335 2.48295 48.2552 2.55026C48.3353 2.79787 48.4225 2.50531 48.477 2.67081C48.5315 2.83507 48.4061 3.07859 48.5685 3.07547C48.614 2.92042 48.4935 2.51523 48.6168 2.44956C49.082 2.20116 49.9503 2.51907 50.3243 2.55209C50.6976 2.58509 50.8182 2.55648 51.0357 2.61252C51.4286 2.71384 51.2846 2.41321 51.5286 2.27561C51.7733 2.13802 51.6543 2.8777 51.6895 3.03671C51.724 3.19565 51.7617 3.03204 51.8047 3.11941C51.8475 3.20677 51.7548 3.31488 51.8555 3.34769C51.9562 3.38045 52.2316 3.09769 52.2673 2.93143C52.3428 2.57918 52.2187 2.20949 52.4853 2.33939C52.5006 2.3471 52.4508 2.54159 52.5095 2.56125C52.9758 2.71098 53.4601 2.72026 53.9258 2.85269C53.9898 2.87121 53.9325 3.08758 53.9698 3.1008C54.3579 3.23919 54.2192 2.87437 54.4319 2.46909C54.3842 3.00843 54.5018 3.3384 54.7963 3.34158C54.9734 3.34369 54.9429 3.10813 55.0575 2.94211C55.0918 2.89206 55.2171 3.0538 55.2398 2.94302C55.3147 2.5809 55.1967 2.17553 55.5004 2.33695C55.5137 2.34462 55.4713 2.54284 55.5173 2.55484C55.8149 2.63342 55.8505 2.25464 56.1722 2.20877C56.4244 2.17278 56.8728 2.40375 57.1599 2.44132C57.1539 3.04769 57.4251 2.90884 57.5351 2.49076C57.7214 2.50787 57.9227 2.48424 58.1028 2.54202C58.1648 2.56173 58.1241 2.73729 58.1319 2.75626C58.2517 3.05383 58.3327 2.64708 58.3729 2.63114C58.8089 2.47613 59.164 2.78441 59.58 2.48313C59.5948 2.47227 59.6187 2.05107 59.7299 2.35861C59.7371 2.37981 59.5997 2.57146 59.7954 2.58628C59.9911 2.60113 60.3601 2.82693 60.6318 2.63175C60.6976 2.58476 60.8639 2.24282 60.9974 2.50998C61.0152 2.54626 60.9957 2.66706 61.0214 2.73429C61.1044 2.94848 61.1497 2.52275 61.2472 2.88443C61.3447 3.2461 61.5476 3.51696 61.8217 3.26743C61.8304 3.26017 61.8953 2.92274 61.9814 2.92807C62.119 2.93688 62.3143 3.00717 62.4579 3.00498C62.5267 3.0038 62.4827 2.79427 62.4946 2.79044C62.9571 2.67302 63.2862 2.85982 63.7816 2.94089C63.8724 2.95616 64.1334 2.67044 64.3092 2.89633C64.5022 3.14362 64.3039 4.17229 64.7476 3.92721C64.9265 3.82919 65.1531 2.52414 65.4747 3.20029C66.0985 3.03274 66.6754 3.37879 67.3009 3.13956C67.329 3.12896 67.4179 2.76473 67.4841 2.76969C67.5822 2.77775 67.6361 2.94799 67.7062 2.9592C68 3.01048 68.2688 2.86483 68.552 2.88748C68.6595 2.89571 68.6219 3.07174 68.7501 3.08157C68.8783 3.09125 68.9638 2.85946 69.1374 2.97141C69.2686 3.05674 69.3998 3.5305 69.5739 3.58572C69.5805 3.11841 69.7001 3.12803 69.9126 3.00467C69.9534 2.98074 69.9096 2.81808 69.929 2.79837C70.0076 2.71454 70.0804 2.84934 70.1551 2.75809C70.1733 2.73617 70.1741 2.57658 70.189 2.54966C70.3152 2.31463 70.5233 2.67361 70.559 2.73612C70.696 2.9735 70.76 2.76593 70.865 2.85941C70.9699 2.95287 70.8131 3.06972 70.9356 3.12644C71.1895 3.24375 71.5158 3.21798 71.7737 3.22531C71.8766 3.22725 71.8064 3.01422 71.8212 3.00955C72.0339 2.95552 72.2491 3.18213 72.3671 2.75778C72.5146 3.85498 72.4954 2.65136 72.7996 2.871C72.8235 2.88877 72.854 3.40762 72.762 3.4838C72.67 3.5599 72.5306 3.39771 72.4029 3.51645C72.3727 3.54431 72.1996 4.03051 72.176 4.05997C71.991 4.29014 71.9647 3.51478 71.955 3.4722C71.844 3.01262 71.6324 3.53641 71.5767 3.5726C71.3218 3.73844 71.1053 3.6294 70.8921 3.74777C70.7527 3.82428 70.7391 4.33216 70.6296 4.31662C70.2657 4.26523 70.1387 3.55673 69.7957 4.17105C69.7222 4.30207 69.7953 4.85718 69.5318 4.42068C69.5152 4.39316 69.3196 3.99385 69.2066 4.24643C69.1924 4.27827 69.1928 4.44005 69.1741 4.45364C69.0487 4.54155 68.965 4.41267 68.8283 4.47439C68.6917 4.53612 68.5273 4.62814 68.3713 4.57327C68.2773 4.54046 68.1566 4.23904 68.1116 4.16525C67.9845 3.95267 67.8482 4.30121 67.7695 4.04379C67.69 3.78507 67.8453 3.39217 67.6371 3.22501C67.6294 3.64532 67.6116 4.07672 67.5993 4.49942C67.1429 4.48462 66.6939 4.34871 66.2361 4.36728C66.1793 4.37 66.2374 4.59596 66.1765 4.6047C65.9198 4.6406 65.6955 4.47952 65.4293 4.54367C65.2232 4.59419 64.9972 4.83343 64.7817 4.8937C64.6501 4.41275 64.3303 4.57602 64.098 4.53207C64.0166 4.51688 64.0221 4.38843 63.9642 4.34652C63.7459 4.19154 63.8482 4.61655 63.7884 4.68344C63.5316 4.9689 63.5096 4.0069 63.2068 4.03067C63.1908 4.0316 62.9947 4.54439 62.9677 4.57632C62.7962 4.78455 62.9393 4.39784 62.832 4.35995C62.6359 4.29071 62.4997 4.16825 62.2696 4.31845C62.2026 4.36294 62.0417 4.68255 61.9114 4.43533C61.8943 4.40296 61.9038 4.23346 61.89 4.22354C61.6403 4.05808 61.6338 4.59065 61.4911 4.77102C61.3484 4.95135 61.128 4.58371 61.0832 4.47775C60.9659 4.20364 61.1731 4.3606 61.1795 4.33371C61.2541 4.01359 61.0934 4.0687 60.9706 4.04165C60.9528 3.51946 60.781 3.5508 60.8432 4.01571C60.8503 4.06649 60.9459 4.0178 60.9706 4.04165C60.8628 4.554 60.674 4.61961 60.4655 4.14084C60.368 3.91644 60.4602 3.6548 60.1638 3.75052C60.0292 3.79372 60.0812 4.15328 59.9625 4.25131C59.6913 4.47497 59.3388 4.13956 59.0592 4.19241C58.9577 4.2116 59.0566 4.40842 58.9872 4.42831C58.8031 4.48172 58.6408 4.33405 58.4559 4.40969C58.4392 4.4168 58.4801 4.62283 58.4226 4.62545C57.9868 4.64938 57.6073 4.51742 57.1523 4.51376C56.9325 4.51209 56.5394 4.62572 56.3117 4.60287C55.917 4.56449 55.4314 4.26489 55.0942 4.33767C54.8742 4.38426 54.9225 4.59033 54.8282 4.73074C54.6464 5.0029 54.3245 4.5154 54.2812 4.43991C54.2799 4.43741 54.4691 4.38883 54.3681 4.28305C54.3094 4.06263 54.2833 4.43895 54.2812 4.43991C54.2527 4.39114 53.8747 4.34436 53.7996 4.38375C53.7588 4.40528 53.7816 4.60052 53.7604 4.60806C53.2548 4.78278 52.7484 4.8324 52.2357 4.74111C52.2267 4.73717 52.2403 4.51878 52.2191 4.51223C51.9222 4.41513 51.7322 4.68229 51.4874 4.84091C51.2426 4.99945 51.0485 4.94635 50.9036 4.57144C50.7189 4.61864 50.454 4.45289 50.3015 4.35232C50.149 4.25175 50.1277 4.67686 50.1143 4.68527C49.6959 4.95426 49.454 4.71093 49.0199 4.67306C48.8135 4.65433 48.4041 4.71599 48.1806 4.76248C48.004 4.79993 47.8976 4.7003 47.7349 4.764C47.7129 4.77251 47.7351 4.96179 47.7284 4.96908C47.5468 5.19554 47.6341 4.73281 47.5966 4.65017C47.4606 4.34964 47.3767 4.18958 47.1441 4.33096C47.0905 4.36334 46.9342 5.0296 46.8364 5.06857C46.7092 5.118 46.7572 4.87919 46.6241 4.93704C46.6127 4.94177 46.6151 5.0891 46.5329 5.0826C46.1515 5.05439 45.7357 4.96866 45.3394 4.98342C45.2853 4.98487 45.3547 5.21857 45.2765 5.22451C44.9094 5.25221 44.5071 5.24356 44.1496 5.13418C44.0616 5.10652 44.1167 4.94289 44.0976 4.89431C43.9803 4.60035 43.814 5.02747 43.7865 5.03561C43.1319 5.24086 42.6308 4.85432 41.9635 5.03835C41.9272 5.04916 41.6476 5.50704 41.5229 5.11434C41.5143 5.08822 41.3909 4.68645 41.2818 4.96114C41.275 4.97833 41.3519 5.18517 41.2177 5.16409C41.0835 5.14305 40.8675 5.28117 40.6831 5.05392C40.6247 4.98233 40.4866 4.58155 40.3124 4.90102C40.3011 4.92333 40.0321 5.6457 39.9361 5.1473C39.9206 5.06526 39.9369 4.53783 39.7289 4.80825C39.6892 4.86068 39.7613 4.97832 39.6567 5.05178C39.4963 5.165 39.2839 5.02374 39.0867 5.25869C39.0524 5.30028 38.906 5.65827 38.7886 5.38656C38.7703 5.344 38.8052 5.16792 38.7432 5.14822C38.4484 5.05369 38.1397 5.17147 37.8404 5.04964C37.7344 5.00684 37.7886 4.72218 37.6781 4.6459C37.5676 4.56964 37.3449 4.49629 37.2293 4.62637C37.1136 4.7565 37.24 5.21018 37.0667 5.24648C36.3133 5.40415 35.5671 5.13801 34.8149 5.09908C34.7033 5.09327 34.7958 5.25561 34.6314 5.25869C34.0252 5.27077 32.9787 5.42298 32.4527 5.07803C32.0312 4.80174 32.5616 4.5914 32.2395 4.47897C32.0841 4.42533 31.916 4.95278 31.8785 4.96938C31.512 5.13806 31.2573 4.90441 30.9275 4.9761C30.8594 4.99097 30.9262 5.20475 30.8682 5.21505C30.6702 5.25212 30.4621 5.1567 30.2728 5.17416C30.188 5.18248 30.2036 5.34575 30.1255 5.33315C29.9386 5.30488 29.7733 5.23625 29.5911 5.08321C29.5745 5.06927 29.6865 4.86616 29.5482 4.8586C29.3244 4.84696 29.0466 4.69599 28.7891 4.85189C28.7127 4.89879 28.7097 5.27195 28.5455 5.01424C28.5111 4.96042 28.555 4.51233 28.3637 4.8995C28.3316 4.96384 28.0102 5.48605 27.8525 5.14944C27.8109 5.06084 27.7047 4.69417 27.6128 4.75179C27.6004 4.76099 27.6503 4.96143 27.5742 4.98098C27.3059 5.0464 27.0247 5.02501 26.749 5.08779C26.6754 5.10495 26.7851 5.31237 26.6754 5.33132C26.3737 5.38375 25.997 5.33093 25.702 5.26601C25.5933 5.24168 25.6684 5.06987 25.6605 5.05117C25.5333 4.74704 25.458 5.15754 25.4158 5.18148C25.1531 5.3248 24.9531 5.13198 24.7109 5.183C24.6441 5.19657 24.6915 5.3923 24.6782 5.40975C24.5402 5.58028 24.643 5.22877 24.5557 5.19002C24.311 5.08031 24.0383 5.09604 23.7909 5.12105C23.7001 5.13053 23.8022 5.35748 23.7207 5.36336C23.238 5.40247 22.7362 5.38075 22.2652 5.25564C22.1765 5.23167 22.2323 5.05691 22.2138 5.01699C22.0864 4.73773 21.8997 5.11864 21.8567 5.15493C21.6614 5.32061 21.5855 5.16606 21.4129 5.19491C20.5702 5.33853 19.5296 5.23617 18.734 5.17293C17.6974 5.09155 16.8929 4.92529 15.9044 4.96847C15.8415 4.97099 15.9049 5.20348 15.8507 5.20864C15.1515 5.26468 14.463 5.17384 13.7624 5.24099C13.7049 5.24609 13.7878 5.46648 13.6955 5.48207C13.5062 5.5156 13.2664 5.50362 13.075 5.43325C12.9817 5.39934 13.1069 5.21022 13.0129 5.17995C12.7941 5.10905 12.5596 5.09335 12.3348 5.12868C12.2392 5.1442 12.3835 5.36961 12.2592 5.37221C11.4124 5.39457 10.5808 5.4334 9.72509 5.1415C9.66643 5.12145 9.61495 4.66333 9.49023 4.75118C9.48083 4.87832 9.48134 5.02788 9.47724 5.16378C8.24455 5.23698 7.02445 5.07816 5.7883 5.05361C5.73618 5.05263 5.82625 5.29536 5.72535 5.2947C5.14134 5.29111 4.57423 5.35835 3.97686 5.11709C3.91759 5.09349 3.94799 4.66645 3.77333 4.73104C3.74252 4.74282 3.47945 4.79978 3.41143 4.89248C3.4022 4.90646 3.45019 5.10578 3.36542 5.11159C2.87279 5.14186 2.35655 5.09635 1.86478 4.97457C1.78541 4.95453 1.86993 4.74227 1.8134 4.72616C1.4124 4.61348 0.976237 4.77484 0.593068 4.58211C0.336588 4.45235 0.431544 4.08543 0.295254 3.72427C0.275977 3.67331 0.117157 3.66524 0.108944 3.4551C0.0878582 2.9267 0.164786 2.34811 0.133221 1.78488C0.126552 1.66357 -0.0861497 1.79423 0.0397832 1.50107C0.048581 1.48145 0.20279 1.38415 0.240772 1.2847C0.267217 1.21594 0.219563 1.00223 0.273518 0.914217C0.327468 0.826282 0.386752 1.00542 0.476201 0.90201C0.565609 0.797318 0.526296 0.554203 0.704854 0.525425ZM49.615 3.9028C49.4738 3.69864 49.4529 4.44638 49.6056 4.26748C49.613 4.25795 49.6222 3.91281 49.615 3.9028ZM66.6965 3.7847C66.5119 3.45489 66.3856 3.93984 66.5158 4.19455C66.646 4.44898 66.7527 3.88467 66.6965 3.7847ZM68.6104 3.54391C68.3947 3.28388 68.3607 4.3442 68.5918 4.12985C68.6052 4.11774 68.623 3.55901 68.6104 3.54391ZM0.927297 3.62142C0.925348 3.61149 0.811182 3.60182 0.808454 3.61166C0.747662 3.84914 0.975948 3.86832 0.927297 3.62142ZM70.5096 3.28177C70.4423 3.13834 70.2484 3.30391 70.3321 3.48227C70.3994 3.62575 70.5935 3.46019 70.5096 3.28177ZM42.2503 3.10477C42.2481 3.09362 42.1663 3.08359 42.1679 3.14657C42.1735 3.34943 42.2874 3.29218 42.2503 3.10477ZM73.7376 3.26956C73.2607 3.22965 72.9715 2.35378 73.4909 2.45261C73.5849 2.47049 73.2882 2.73192 73.4079 2.81089C73.6269 2.95475 73.7724 2.4048 73.9959 2.6995C74.0364 2.75343 73.7648 3.27379 73.7368 3.27078C73.737 3.27038 73.7373 3.26997 73.7376 3.26956ZM49.5337 3.00467C49.5308 2.99478 49.4175 2.98541 49.4148 2.99521C49.3535 3.23259 49.5817 3.25162 49.5337 3.00467ZM37.4743 2.64243C37.468 2.62136 37.2051 2.60165 37.1965 2.62106C37.0594 3.00925 37.591 3.05024 37.4743 2.64243ZM57.1645 2.45749C57.2881 2.21868 57.436 2.19056 57.5345 2.49045C57.4117 2.47453 57.288 2.47219 57.1645 2.45749Z" fill="#AD717A"/>
</svg>
