<?xml version="1.0" encoding="utf-8"?>
<!-- Generator: Adobe Illustrator 23.0.5, SVG Export Plug-In . SVG Version: 6.00 Build 0)  -->
<svg version="1.1" id="Layer_1" xmlns="http://www.w3.org/2000/svg" xmlns:xlink="http://www.w3.org/1999/xlink" x="0px" y="0px"
	 viewBox="0 0 16 16" style="enable-background:new 0 0 16 16;" xml:space="preserve">
<style type="text/css">
	.st0{fill:#9FA0A5;}
</style>
<path class="st0" d="M1,11c0-0.6,0.4-1,1-1h2c0.6,0,1,0.4,1,1v3c0,0.6-0.4,1-1,1H2c-0.6,0-1-0.4-1-1V11z M6,7c0-0.6,0.4-1,1-1h2
	c0.6,0,1,0.4,1,1v7c0,0.6-0.4,1-1,1H7c-0.6,0-1-0.4-1-1V7z M11,2c0-0.6,0.4-1,1-1h2c0.6,0,1,0.4,1,1v12c0,0.6-0.4,1-1,1h-2
	c-0.6,0-1-0.4-1-1V2z"/>
</svg>
