<svg width="151" height="6" viewBox="0 0 151 6" fill="none" xmlns="http://www.w3.org/2000/svg">
<path d="M1.43828 0.525425C2.28445 0.460293 3.39363 0.529935 4.23659 0.625522C4.50078 0.655168 4.367 0.787689 4.54937 0.81412C4.90605 0.865646 5.23834 0.800653 5.59081 0.862033C5.70763 0.883023 5.56222 1.09294 5.68471 1.11014C6.35591 1.20291 6.99089 1.14944 7.67082 1.19406C11.02 1.41421 14.3121 1.49301 17.7022 1.58866C18.82 1.62001 20.1789 1.81052 21.3335 1.7272C21.4682 1.71729 21.3879 1.53304 21.4135 1.51785C21.8157 1.28538 21.682 1.65734 21.9446 1.70676C22.9869 1.90189 24.1459 1.91886 25.149 1.84775C25.5758 1.81696 25.1479 1.45099 25.5776 1.6564C25.6074 1.67028 25.4991 1.86594 25.6162 1.88681C25.8816 1.93375 26.3851 1.89878 26.5908 1.91428C26.9872 1.94514 27.0528 1.94318 27.4277 1.94541C27.9403 1.95016 28.55 2.04742 29.0999 2.00308C29.2173 1.99304 29.0619 1.79247 29.2491 1.75833C29.4365 1.72426 29.9322 1.74126 30.0993 1.78855C30.2665 1.83585 30.1953 1.9935 30.2249 2.02963C30.4683 2.33463 31.0417 1.91221 31.1154 1.90177C32.4606 1.72377 33.6142 1.9644 34.8768 1.96372C35.8354 1.96269 36.8604 1.88324 37.7725 1.89414C38.8592 1.90789 39.7801 2.01658 40.8358 1.9979C40.9472 1.99616 40.8166 1.76033 40.9527 1.75772C42.3984 1.73028 43.834 1.75599 45.2734 1.91519C45.4178 1.93137 45.2317 2.13842 45.376 2.16696C46.259 2.33713 47.6562 2.7459 48.1806 1.84439C48.7787 1.8796 49.5049 1.91597 50.04 2.09769C50.385 2.21465 50.0499 2.44021 50.4738 2.34397C50.5693 2.32252 50.445 2.12498 50.5884 2.10776C51.1919 2.03544 51.8513 2.09966 52.4483 1.99759C52.5698 1.97637 52.5366 1.79936 52.571 1.76749C52.8602 1.50936 53.3416 1.93607 53.4466 1.96708C54.2458 2.19829 54.8294 2.1073 55.5738 2.11295C55.7466 2.11436 55.5424 1.8766 55.7086 1.86942C56.5708 1.83534 57.464 1.85578 58.3082 1.96128C58.496 1.98532 58.3233 2.18784 58.413 2.20969C58.8087 2.30356 58.8964 1.92105 59.2759 2.0037C59.3559 2.02063 59.3109 2.194 59.3255 2.21305C59.5539 2.51195 59.7523 2.08842 59.811 2.07907C60.5542 1.95131 61.0292 2.39345 61.7471 2.33084C61.8329 2.32291 61.6393 2.10353 61.8807 2.09464C63.489 2.03408 65.19 2.09434 66.782 2.26981C67.0295 2.2968 66.8529 2.46159 66.8684 2.48191C67.1223 2.79933 67.2866 2.37402 67.3673 2.35801C68.004 2.24271 68.5988 2.59938 69.0314 2.09281C71.728 2.2686 74.4122 1.98414 77.0865 2.43796C77.1205 2.44322 77.0595 2.65268 77.1274 2.66227C77.9442 2.77988 77.7873 2.45433 78.3278 2.05619C78.464 1.95621 78.8781 2.43691 78.9148 2.47214C79.0483 2.60199 78.9098 2.91361 78.9545 2.93875C79.3245 3.13621 79.2642 2.10565 79.7632 2.10532C79.7788 2.10704 79.7133 2.29673 79.7552 2.31559C79.8853 2.3748 80.0143 2.29942 80.1417 2.36472C80.4331 2.51581 80.5369 3.01657 80.9821 2.72513C81.0384 2.68731 80.9524 2.10273 81.398 2.13035C81.5756 2.14185 82.3619 2.13183 82.5823 2.16971C82.8024 2.20755 82.6513 2.39593 82.667 2.40409C83.26 2.65319 83.0352 2.75643 83.3323 3.12522C83.6293 3.49261 83.547 2.61633 83.6681 2.51853C83.7894 2.421 84.2242 2.62652 84.3311 2.69797C84.4379 2.76945 84.3047 2.88915 84.3996 2.9296C85.0293 3.19387 84.676 2.49465 84.8835 2.35557C85.3726 2.02625 85.7536 2.6761 86.2014 2.73978C86.3226 2.75698 86.2237 2.60897 86.3316 2.59513C86.7589 2.54227 87.0159 2.74504 87.5021 2.55912C87.5816 2.52882 87.9746 2.13811 88.229 2.42484C88.265 2.46619 88.1627 2.62813 88.3448 2.6644C88.6168 2.71884 89.1071 2.75424 89.3995 2.70011C89.6154 2.66006 89.3679 2.39322 89.6397 2.47611C89.7605 2.51312 89.5366 2.66923 89.7635 2.72574C89.9893 2.78224 90.5664 2.77538 90.786 2.76999C91.0051 2.76448 90.8852 2.56207 90.9029 2.54844C91.0101 2.47032 91.4308 2.37272 91.468 2.37296C93.3432 2.34825 95.0724 2.68944 96.8981 2.57651C97.0414 2.56794 96.946 2.3545 96.9678 2.35099C97.4583 2.26156 97.0716 2.82906 97.4142 3.01902C97.3647 2.58587 97.567 2.6643 97.9125 2.6168C98.079 2.59355 97.9883 2.42584 98.0035 2.40867C98.2504 2.15392 98.4224 2.48296 98.4666 2.55027C98.6301 2.79787 98.8081 2.50531 98.9194 2.67081C99.0306 2.83508 98.7747 3.07859 99.106 3.07547C99.1989 2.92042 98.9529 2.51523 99.2045 2.44956C100.154 2.20116 101.926 2.51908 102.689 2.5521C103.451 2.5851 103.697 2.55649 104.14 2.61252C104.942 2.71384 104.648 2.41322 105.146 2.27561C105.645 2.13802 105.403 2.87771 105.474 3.03672C105.545 3.19566 105.622 3.03205 105.71 3.11942C105.797 3.20677 105.608 3.31489 105.813 3.34769C106.019 3.38046 106.581 3.0977 106.654 2.93143C106.808 2.57919 106.554 2.20949 107.098 2.33939C107.13 2.3471 107.028 2.5416 107.148 2.56126C108.099 2.71099 109.088 2.72027 110.038 2.8527C110.168 2.87121 110.052 3.08758 110.128 3.1008C110.92 3.2392 110.636 2.87437 111.071 2.46909C110.973 3.00843 111.213 3.3384 111.814 3.34159C112.175 3.34369 112.113 3.10813 112.347 2.94211C112.417 2.89207 112.673 3.05381 112.719 2.94303C112.872 2.58091 112.631 2.17554 113.251 2.33695C113.278 2.34462 113.191 2.54284 113.285 2.55485C113.893 2.63342 113.965 2.25465 114.622 2.20878C115.136 2.17279 116.051 2.40376 116.637 2.44132C116.625 3.0477 117.178 2.90884 117.403 2.49076C117.783 2.50788 118.194 2.48424 118.561 2.54203C118.688 2.56173 118.604 2.73729 118.62 2.75626C118.865 3.05384 119.03 2.64709 119.112 2.63114C120.002 2.47613 120.727 2.78441 121.575 2.48313C121.606 2.47228 121.654 2.05107 121.881 2.35862C121.896 2.37982 121.616 2.57146 122.015 2.58628C122.414 2.60113 123.167 2.82693 123.722 2.63175C123.856 2.58476 124.195 2.24283 124.468 2.50999C124.504 2.54627 124.464 2.66707 124.517 2.73429C124.686 2.94849 124.778 2.52275 124.977 2.88444C125.176 3.2461 125.59 3.51697 126.15 3.26743C126.167 3.26018 126.3 2.92274 126.476 2.92808C126.756 2.93688 127.155 3.00718 127.448 3.00498C127.588 3.00381 127.498 2.79428 127.523 2.79044C128.466 2.67303 129.138 2.85983 130.149 2.94089C130.334 2.95617 130.867 2.67044 131.225 2.89634C131.619 3.14362 131.215 4.17229 132.12 3.92722C132.485 3.8292 132.948 2.52414 133.604 3.20029C134.877 3.03275 136.054 3.3788 137.33 3.13956C137.388 3.12896 137.569 2.76473 137.704 2.76969C137.904 2.77776 138.014 2.94799 138.157 2.95921C138.757 3.01048 139.305 2.86484 139.883 2.88749C140.102 2.89572 140.026 3.07174 140.287 3.08158C140.549 3.09125 140.723 2.85947 141.078 2.97141C141.345 3.05674 141.613 3.53051 141.968 3.58573C141.982 3.11841 142.226 3.12804 142.66 3.00468C142.743 2.98074 142.653 2.81809 142.693 2.79838C142.853 2.71455 143.002 2.84935 143.154 2.7581C143.191 2.73618 143.193 2.57659 143.223 2.54966C143.481 2.31463 143.906 2.67362 143.979 2.73612C144.258 2.9735 144.389 2.76594 144.603 2.85941C144.817 2.95288 144.497 3.06972 144.747 3.12644C145.265 3.24376 145.931 3.21798 146.457 3.22532C146.667 3.22726 146.524 3.01423 146.554 3.00956C146.988 2.95553 147.427 3.18213 147.668 2.75779C147.969 3.85498 147.93 2.65137 148.55 2.87101C148.599 2.88878 148.662 3.40763 148.474 3.4838C148.286 3.5599 148.002 3.39772 147.741 3.51646C147.679 3.54432 147.326 4.03052 147.278 4.05997C146.9 4.29015 146.847 3.51479 146.827 3.47221C146.601 3.01263 146.169 3.53641 146.055 3.57261C145.535 3.73845 145.093 3.62941 144.658 3.74778C144.374 3.82428 144.346 4.33217 144.123 4.31662C143.38 4.26524 143.121 3.55673 142.421 4.17106C142.271 4.30208 142.42 4.85718 141.882 4.42069C141.849 4.39317 141.45 3.99386 141.219 4.24643C141.19 4.27828 141.191 4.44006 141.153 4.45365C140.897 4.54155 140.726 4.41267 140.447 4.4744C140.168 4.53613 139.833 4.62815 139.514 4.57328C139.323 4.54046 139.076 4.23905 138.984 4.16526C138.725 3.95268 138.447 4.30122 138.286 4.0438C138.124 3.78508 138.441 3.39218 138.016 3.22501C138 3.64532 137.964 4.07673 137.939 4.49942C137.008 4.48462 136.092 4.34871 135.157 4.36728C135.042 4.37 135.16 4.59596 135.036 4.60471C134.512 4.64061 134.054 4.47953 133.511 4.54367C133.091 4.59419 132.629 4.83343 132.19 4.89371C131.921 4.41276 131.269 4.57603 130.795 4.53208C130.629 4.51689 130.64 4.38844 130.522 4.34653C130.076 4.19154 130.285 4.61656 130.163 4.68344C129.639 4.9689 129.594 4.0069 128.976 4.03067C128.943 4.03161 128.543 4.54439 128.488 4.57633C128.138 4.78455 128.43 4.39785 128.211 4.35996C127.811 4.29072 127.533 4.16826 127.064 4.31845C126.927 4.36294 126.599 4.68255 126.333 4.43534C126.298 4.40296 126.317 4.23347 126.289 4.22354C125.78 4.05808 125.766 4.59066 125.475 4.77103C125.184 4.95136 124.734 4.58371 124.643 4.47775C124.403 4.20364 124.826 4.36061 124.839 4.33371C124.991 4.0136 124.663 4.06871 124.413 4.04166C124.377 3.51947 124.026 3.55081 124.153 4.01572C124.168 4.0665 124.363 4.0178 124.413 4.04166C124.193 4.554 123.808 4.61962 123.382 4.14084C123.183 3.91645 123.372 3.65481 122.767 3.75052C122.492 3.79373 122.598 4.15329 122.356 4.25131C121.802 4.47498 121.083 4.13957 120.513 4.19242C120.306 4.2116 120.507 4.40842 120.366 4.42832C119.99 4.48173 119.659 4.33405 119.282 4.4097C119.248 4.4168 119.331 4.62283 119.214 4.62546C118.324 4.64939 117.55 4.51742 116.622 4.51376C116.173 4.51209 115.371 4.62572 114.906 4.60288C114.101 4.5645 113.11 4.2649 112.422 4.33768C111.973 4.38427 112.072 4.59034 111.879 4.73074C111.508 5.00291 110.851 4.5154 110.763 4.43991C110.76 4.43741 111.146 4.38883 110.94 4.28305C110.821 4.06264 110.767 4.43896 110.763 4.43991C110.705 4.39115 109.933 4.34437 109.78 4.38376C109.697 4.40529 109.744 4.60053 109.7 4.60806C108.669 4.78279 107.635 4.83241 106.589 4.74112C106.571 4.73717 106.598 4.51878 106.555 4.51224C105.949 4.41514 105.562 4.68229 105.062 4.84091C104.563 4.99946 104.167 4.94635 103.871 4.57144C103.494 4.61865 102.953 4.4529 102.642 4.35233C102.331 4.25176 102.288 4.67687 102.26 4.68527C101.406 4.95426 100.913 4.71093 100.027 4.67306C99.6059 4.65433 98.7706 4.71599 98.3146 4.76248C97.9542 4.79993 97.7371 4.7003 97.405 4.76401C97.3601 4.77251 97.4055 4.9618 97.3918 4.96908C97.0212 5.19555 97.1993 4.73282 97.1228 4.65018C96.8454 4.34965 96.674 4.18958 96.1994 4.33096C96.09 4.36334 95.7711 5.02961 95.5715 5.06857C95.3121 5.11801 95.41 4.87919 95.1384 4.93704C95.1152 4.94177 95.12 5.0891 94.9523 5.08261C94.1741 5.05439 93.3256 4.96866 92.5169 4.98343C92.4064 4.98488 92.5481 5.21857 92.3885 5.22451C91.6395 5.25222 90.8186 5.24357 90.089 5.13418C89.9094 5.10652 90.022 4.9429 89.983 4.89432C89.7436 4.60035 89.4042 5.02747 89.3482 5.03561C88.0123 5.24086 86.9899 4.85433 85.6283 5.03836C85.5542 5.04916 84.9837 5.50704 84.7291 5.11435C84.7117 5.08822 84.4599 4.68645 84.2372 4.96115C84.2234 4.97833 84.3803 5.18517 84.1064 5.16409C83.8326 5.14305 83.3919 5.28118 83.0155 5.05392C82.8963 4.98233 82.6146 4.58155 82.2591 4.90103C82.236 4.92333 81.6872 5.64571 81.4913 5.1473C81.4595 5.06526 81.4928 4.53784 81.0685 4.80825C80.9875 4.86068 81.1346 4.97832 80.921 5.05178C80.5938 5.165 80.1603 5.02374 79.7581 5.25869C79.6879 5.30029 79.3893 5.65827 79.1498 5.38656C79.1123 5.34401 79.1836 5.16793 79.057 5.14822C78.4555 5.0537 77.8257 5.17148 77.2149 5.04965C76.9986 5.00684 77.1092 4.72218 76.8837 4.6459C76.6582 4.56965 76.2038 4.49629 75.9678 4.62637C75.7318 4.75651 75.9896 5.21018 75.6361 5.24649C74.0988 5.40415 72.5761 5.13802 71.0411 5.09909C70.8135 5.09327 71.0022 5.25561 70.6667 5.25869C69.4298 5.27077 67.2943 5.42298 66.221 5.07803C65.361 4.80174 66.4432 4.5914 65.7861 4.47897C65.469 4.42534 65.1259 4.95278 65.0494 4.96939C64.3016 5.13806 63.7818 4.90441 63.1088 4.9761C62.9698 4.99097 63.1061 5.20475 62.9878 5.21505C62.5837 5.25213 62.1591 5.1567 61.773 5.17416C61.5998 5.18248 61.6317 5.34576 61.4723 5.33315C61.0909 5.30488 60.7537 5.23625 60.3819 5.08322C60.348 5.06927 60.5765 4.86616 60.2943 4.85861C59.8377 4.84696 59.2708 4.69599 58.7454 4.85189C58.5895 4.89879 58.5834 5.27196 58.2483 5.01425C58.178 4.96042 58.2677 4.51233 57.8773 4.8995C57.8117 4.96384 57.156 5.48606 56.8342 5.14944C56.7493 5.06084 56.5326 4.69417 56.3451 4.7518C56.3197 4.76099 56.4216 4.96143 56.2662 4.98098C55.7187 5.0464 55.145 5.02501 54.5825 5.08779C54.4323 5.10495 54.656 5.31237 54.4322 5.33132C53.8166 5.38375 53.048 5.33094 52.446 5.26601C52.2241 5.24169 52.3775 5.06987 52.3614 5.05117C52.1017 4.74705 51.9481 5.15755 51.862 5.18148C51.3259 5.32481 50.9177 5.13198 50.4236 5.18301C50.2873 5.19657 50.384 5.3923 50.3568 5.40975C50.0753 5.58028 50.285 5.22877 50.1068 5.19003C49.6076 5.08031 49.0512 5.09605 48.5464 5.12106C48.361 5.13053 48.5694 5.35748 48.403 5.36337C47.4181 5.40247 46.3942 5.38076 45.433 5.25564C45.252 5.23167 45.3659 5.05691 45.3282 5.01699C45.0682 4.73773 44.6872 5.11865 44.5995 5.15493C44.2009 5.32061 44.046 5.16606 43.694 5.19491C41.9743 5.33853 39.8509 5.23617 38.2276 5.17294C36.1122 5.09155 34.4707 4.9253 32.4535 4.96847C32.3253 4.97099 32.4546 5.20348 32.3441 5.20864C30.9172 5.26468 29.5124 5.17384 28.0827 5.24099C27.9654 5.24609 28.1345 5.46648 27.9462 5.48208C27.5599 5.5156 27.0706 5.50362 26.6801 5.43325C26.4896 5.39934 26.7451 5.21022 26.5534 5.17995C26.1069 5.10905 25.6283 5.09335 25.1697 5.12868C24.9746 5.1442 25.269 5.36961 25.0154 5.37221C23.2875 5.39458 21.5905 5.4334 19.8444 5.1415C19.7247 5.12145 19.6197 4.66333 19.3652 4.75118C19.346 4.87832 19.3471 5.02788 19.3387 5.16378C16.8233 5.23698 14.3337 5.07816 11.8113 5.05361C11.7049 5.05263 11.8887 5.29536 11.6828 5.2947C10.4911 5.29111 9.3339 5.35835 8.11494 5.11709C7.99399 5.09349 8.05604 4.66645 7.69963 4.73104C7.63676 4.74282 7.09996 4.79978 6.96117 4.89248C6.94232 4.90646 7.04025 5.10578 6.86728 5.11159C5.86205 5.14186 4.80863 5.09636 3.80515 4.97457C3.6432 4.95453 3.81567 4.74227 3.70032 4.72616C2.88207 4.61348 1.99205 4.77484 1.21018 4.58211C0.686821 4.45235 0.880583 4.08543 0.602477 3.72427C0.563142 3.67331 0.239063 3.66524 0.222304 3.4551C0.179278 2.9267 0.336252 2.34811 0.271842 1.78488C0.258234 1.66357 -0.175792 1.79423 0.0811791 1.50107C0.0991312 1.48145 0.413802 1.38415 0.491306 1.2847C0.545266 1.21594 0.448027 1.00223 0.558124 0.914217C0.668212 0.826282 0.789183 1.00542 0.971707 0.90201C1.15415 0.797318 1.07393 0.554203 1.43828 0.525425ZM101.241 3.9028C100.953 3.69865 100.911 4.44638 101.222 4.26749C101.237 4.25795 101.256 3.91282 101.241 3.9028ZM136.097 3.7847C135.72 3.4549 135.463 3.93984 135.728 4.19455C135.994 4.44899 136.212 3.88468 136.097 3.7847ZM140.002 3.54392C139.562 3.28389 139.493 4.34421 139.964 4.12986C139.992 4.11774 140.028 3.55902 140.002 3.54392ZM1.89219 3.62142C1.88821 3.61149 1.65525 3.60182 1.64968 3.61166C1.52564 3.84914 1.99146 3.86832 1.89219 3.62142ZM143.878 3.28178C143.74 3.13834 143.345 3.30392 143.515 3.48228C143.653 3.62576 144.049 3.4602 143.878 3.28178ZM86.2135 3.10477C86.209 3.09363 86.042 3.08359 86.0453 3.14658C86.0566 3.34944 86.2891 3.29219 86.2135 3.10477ZM150.465 3.26957C149.491 3.22966 148.901 2.35378 149.961 2.45262C150.153 2.4705 149.548 2.73193 149.792 2.81089C150.239 2.95475 150.536 2.40481 150.992 2.6995C151.074 2.75344 150.52 3.27379 150.463 3.27079C150.463 3.27038 150.464 3.26998 150.465 3.26957ZM101.075 3.00467C101.07 2.99479 100.838 2.98541 100.833 2.99521C100.708 3.2326 101.173 3.25162 101.075 3.00467ZM76.4678 2.64243C76.4551 2.62136 75.9185 2.60165 75.901 2.62107C75.6211 3.00925 76.7059 3.05024 76.4678 2.64243ZM116.646 2.4575C116.899 2.21869 117.2 2.19057 117.402 2.49046C117.151 2.47454 116.898 2.47219 116.646 2.4575Z" fill="#AD717A"/>
</svg>
