<svg width="16" height="16" viewBox="0 0 16 16" fill="none" xmlns="http://www.w3.org/2000/svg">
<path d="M2.00004 3.33333L7.18145 7.36332C7.66293 7.73781 8.33715 7.7378 8.81863 7.36332L14 3.33333M3.46671 13.3333H12.5334C13.2801 13.3333 13.6535 13.3333 13.9387 13.188C14.1896 13.0602 14.3936 12.8562 14.5214 12.6053C14.6667 12.3201 14.6667 11.9467 14.6667 11.2V4.8C14.6667 4.05326 14.6667 3.67989 14.5214 3.39468C14.3936 3.1438 14.1896 2.93982 13.9387 2.81199C13.6535 2.66667 13.2801 2.66667 12.5334 2.66667H3.46671C2.71997 2.66667 2.3466 2.66667 2.06139 2.81199C1.8105 2.93982 1.60653 3.1438 1.4787 3.39468C1.33337 3.67989 1.33337 4.05326 1.33337 4.8V11.2C1.33337 11.9467 1.33337 12.3201 1.4787 12.6053C1.60653 12.8562 1.8105 13.0602 2.06139 13.188C2.3466 13.3333 2.71997 13.3333 3.46671 13.3333Z" stroke="white" stroke-width="1.5"/>
</svg>
