<svg width="32" height="32" viewBox="0 0 32 32" fill="none" xmlns="http://www.w3.org/2000/svg">
<g clip-path="url(#clip0_1834_222779)">
<path d="M10.6667 9.83166C10.2055 9.83166 9.83167 10.2055 9.83167 10.6667C9.83167 11.1278 10.2055 11.5017 10.6667 11.5017V10.6667V9.83166ZM21.3333 11.5017C21.7945 11.5017 22.1683 11.1278 22.1683 10.6667C22.1683 10.2055 21.7945 9.83166 21.3333 9.83166V10.6667V11.5017ZM10.6667 15.165C10.2055 15.165 9.83167 15.5388 9.83167 16C9.83167 16.4612 10.2055 16.835 10.6667 16.835V16V15.165ZM21.3333 16.835C21.7945 16.835 22.1683 16.4612 22.1683 16C22.1683 15.5388 21.7945 15.165 21.3333 15.165V16V16.835ZM10.6667 20.4983C10.2055 20.4983 9.83167 20.8722 9.83167 21.3333C9.83167 21.7945 10.2055 22.1683 10.6667 22.1683V21.3333V20.4983ZM21.3333 22.1683C21.7945 22.1683 22.1683 21.7945 22.1683 21.3333C22.1683 20.8722 21.7945 20.4983 21.3333 20.4983V21.3333V22.1683ZM4.9734 29.94L5.35248 29.196L4.9734 29.94ZM2.05996 27.0266L2.80395 26.6475L2.05996 27.0266ZM29.94 27.0266L29.1961 26.6475L29.94 27.0266ZM27.0266 29.94L26.6475 29.196L27.0266 29.94ZM27.0266 2.05995L26.6475 2.80394L27.0266 2.05995ZM29.94 4.97339L29.1961 5.35247L29.94 4.97339ZM4.9734 2.05995L5.35248 2.80394L4.9734 2.05995ZM2.05996 4.97339L2.80395 5.35247L2.05996 4.97339ZM10.6667 10.6667V11.5017H21.3333V10.6667V9.83166H10.6667V10.6667ZM10.6667 16V16.835H21.3333V16V15.165H10.6667V16ZM10.6667 21.3333V22.1683H21.3333V21.3333V20.4983H10.6667V21.3333ZM12 1.33333V2.16833H20V1.33333V0.498328H12V1.33333ZM30.6667 12H29.8317V20H30.6667H31.5017V12H30.6667ZM20 30.6667V29.8317H12V30.6667V31.5017H20V30.6667ZM1.33333 20H2.16833V12H1.33333H0.498332V20H1.33333ZM12 30.6667V29.8317C10.1194 29.8317 8.75913 29.831 7.68934 29.7436C6.6293 29.657 5.92819 29.4894 5.35248 29.196L4.9734 29.94L4.59431 30.684C5.44468 31.1173 6.39003 31.313 7.55335 31.4081C8.70692 31.5023 10.1469 31.5017 12 31.5017V30.6667ZM1.33333 20H0.498332C0.498332 21.8531 0.497683 23.2931 0.591933 24.4466C0.68698 25.61 0.88268 26.5553 1.31596 27.4057L2.05996 27.0266L2.80395 26.6475C2.51061 26.0718 2.343 25.3707 2.25639 24.3107C2.16898 23.2409 2.16833 21.8806 2.16833 20H1.33333ZM4.9734 29.94L5.35248 29.196C4.25518 28.6369 3.36305 27.7448 2.80395 26.6475L2.05996 27.0266L1.31596 27.4057C2.03517 28.8172 3.18278 29.9648 4.59431 30.684L4.9734 29.94ZM30.6667 20H29.8317C29.8317 21.8806 29.831 23.2409 29.7436 24.3107C29.657 25.3707 29.4894 26.0718 29.1961 26.6475L29.94 27.0266L30.684 27.4057C31.1173 26.5553 31.313 25.61 31.4081 24.4466C31.5023 23.2931 31.5017 21.8531 31.5017 20H30.6667ZM20 30.6667V31.5017C21.8531 31.5017 23.2931 31.5023 24.4466 31.4081C25.61 31.313 26.5553 31.1173 27.4057 30.684L27.0266 29.94L26.6475 29.196C26.0718 29.4894 25.3707 29.657 24.3107 29.7436C23.2409 29.831 21.8806 29.8317 20 29.8317V30.6667ZM29.94 27.0266L29.1961 26.6475C28.6369 27.7448 27.7448 28.6369 26.6475 29.196L27.0266 29.94L27.4057 30.684C28.8172 29.9648 29.9648 28.8172 30.684 27.4057L29.94 27.0266ZM20 1.33333V2.16833C21.8806 2.16833 23.2409 2.16898 24.3107 2.25638C25.3707 2.34299 26.0718 2.5106 26.6475 2.80394L27.0266 2.05995L27.4057 1.31596C26.5553 0.882676 25.61 0.686976 24.4466 0.591929C23.2931 0.497679 21.8531 0.498328 20 0.498328V1.33333ZM30.6667 12H31.5017C31.5017 10.1469 31.5023 8.70691 31.4081 7.55335C31.313 6.39003 31.1173 5.44468 30.684 4.59431L29.94 4.97339L29.1961 5.35247C29.4894 5.92818 29.657 6.62929 29.7436 7.68934C29.831 8.75913 29.8317 10.1194 29.8317 12H30.6667ZM27.0266 2.05995L26.6475 2.80394C27.7448 3.36304 28.6369 4.25517 29.1961 5.35247L29.94 4.97339L30.684 4.59431C29.9648 3.18278 28.8172 2.03517 27.4057 1.31596L27.0266 2.05995ZM12 1.33333V0.498328C10.1469 0.498328 8.70692 0.497679 7.55335 0.591929C6.39003 0.686976 5.44468 0.882676 4.59431 1.31596L4.9734 2.05995L5.35248 2.80394C5.92819 2.5106 6.6293 2.34299 7.68934 2.25638C8.75913 2.16898 10.1194 2.16833 12 2.16833V1.33333ZM1.33333 12H2.16833C2.16833 10.1194 2.16898 8.75913 2.25639 7.68934C2.343 6.62929 2.51061 5.92818 2.80395 5.35247L2.05996 4.97339L1.31596 4.59431C0.88268 5.44468 0.68698 6.39003 0.591933 7.55335C0.497683 8.70692 0.498332 10.1469 0.498332 12H1.33333ZM4.9734 2.05995L4.59431 1.31596C3.18278 2.03517 2.03517 3.18278 1.31596 4.59431L2.05996 4.97339L2.80395 5.35247C3.36305 4.25517 4.25518 3.36304 5.35248 2.80394L4.9734 2.05995Z" fill="#F9F9F9"/>
</g>
<defs>
<clipPath id="clip0_1834_222779">
<rect width="32" height="32" fill="white"/>
</clipPath>
</defs>
</svg>
