<?xml version="1.0" encoding="utf-8"?>
<!-- Generator: Adobe Illustrator 23.0.5, SVG Export Plug-In . SVG Version: 6.00 Build 0)  -->
<svg version="1.1" id="Layer_1" xmlns="http://www.w3.org/2000/svg" xmlns:xlink="http://www.w3.org/1999/xlink" x="0px" y="0px"
	 viewBox="0 0 16 16" style="enable-background:new 0 0 16 16;" xml:space="preserve">
<style type="text/css">
	.st0{fill:#FFFFFF;}
</style>
<path class="st0" d="M8.2,2C8.1,2,7.9,2,7.8,2L0.3,5.5C0,5.7-0.1,6,0,6.2c0.1,0.1,0.1,0.2,0.3,0.3l7.5,3c0.1,0,0.3,0,0.4,0L14,7.1
	V13c-0.6,0-1,0.4-1,1v2h3v-2c0-0.6-0.4-1-1-1V6.7l0.7-0.3c0.3-0.1,0.4-0.4,0.3-0.7c0-0.1-0.1-0.2-0.3-0.3L8.2,2z M8,8.5L1.8,6L8,3.1
	L14.2,6L8,8.5z"/>
<path class="st0" d="M4.2,9c-0.3-0.1-0.5,0-0.6,0.3c0,0,0,0,0,0L3,11.1c-0.1,0.2,0.1,0.5,0.3,0.6l4.5,1.8c0.1,0,0.3,0,0.4,0l4.5-1.8
	c0.2-0.1,0.4-0.4,0.3-0.6l-0.5-1.7c-0.1-0.3-0.4-0.4-0.6-0.3c0,0,0,0,0,0L8,10.5L4.2,9z M4.1,10.9l0.2-0.7l3.5,1.3
	c0.1,0,0.2,0,0.4,0l3.5-1.3l0.2,0.7L8,12.5L4.1,10.9z"/>
</svg>
