<svg width="14" height="14" viewBox="0 0 14 14" fill="none" xmlns="http://www.w3.org/2000/svg">
<path d="M4.9868 5.50344C5.41076 6.38646 5.9887 7.21406 6.72063 7.94599C7.45256 8.67792 8.28017 9.25587 9.16319 9.67983C9.23914 9.71629 9.27712 9.73453 9.32517 9.74854C9.49595 9.79832 9.70565 9.76256 9.85028 9.659C9.89098 9.62986 9.92579 9.59504 9.99543 9.52541C10.2084 9.31245 10.3149 9.20597 10.4219 9.13635C10.8257 8.87382 11.3463 8.87382 11.7501 9.13635C11.8572 9.20597 11.9636 9.31245 12.1766 9.52541L12.2953 9.64411C12.619 9.96783 12.7809 10.1297 12.8688 10.3035C13.0437 10.6493 13.0437 11.0575 12.8688 11.4033C12.7809 11.5771 12.619 11.739 12.2953 12.0627L12.1993 12.1587C11.8767 12.4813 11.7154 12.6426 11.496 12.7658C11.2527 12.9025 10.8747 13.0008 10.5956 13C10.3441 12.9992 10.1721 12.9505 9.82832 12.8529C7.98056 12.3284 6.23698 11.3389 4.78236 9.88426C3.32775 8.42965 2.33821 6.68607 1.81376 4.83831C1.71617 4.49448 1.66738 4.32256 1.66663 4.07102C1.6658 3.7919 1.76409 3.41393 1.9008 3.17058C2.02399 2.95127 2.1853 2.78996 2.50792 2.46735L2.60394 2.37133C2.92766 2.0476 3.08952 1.88574 3.26336 1.79782C3.60908 1.62295 4.01737 1.62295 4.36309 1.79782C4.53693 1.88574 4.69879 2.0476 5.02251 2.37133L5.14122 2.49003C5.35418 2.70299 5.46066 2.80947 5.53027 2.91654C5.79281 3.32033 5.79281 3.84089 5.53027 4.24469C5.46066 4.35176 5.35418 4.45824 5.14122 4.6712C5.07158 4.74083 5.03677 4.77565 5.00763 4.81635C4.90407 4.96097 4.86831 5.17068 4.91809 5.34145C4.9321 5.38951 4.95033 5.42748 4.9868 5.50344Z" stroke="white" stroke-width="1.5" stroke-linecap="round" stroke-linejoin="round"/>
</svg>
