<svg xmlns="http://www.w3.org/2000/svg" viewBox="0 0 200 200" fill="#0c2a3a" xmlns:v="https://vecta.io/nano"><path d="M129.2 62V26H44v36H21.6h-2.4v89.4.7h64.9v18.7h-19v4.8H108v-4.8H89v-18.7h64.9v-24.8c-2-1.8-3.7-3.9-4.8-6.4v26.4h-125V66.8H44v69h85.2v-69h19.9v38.5c1.1-2.5 2.8-4.7 4.8-6.4V62h-24.7zm-4.8 69H48.8V30.8h75.6V131zM71.6 81.5c-1.6-1.6-3.8-2.6-6.1-2.6s-4.5.9-6.1 2.5-2.5 3.8-2.5 6.1.9 4.5 2.5 6.1 3.8 2.5 6.1 2.6c2.3 0 4.5-.9 6.2-2.5 1.6-1.6 2.6-3.8 2.6-6.1-.2-2.3-1.1-4.5-2.7-6.1zm-3.4 8.8c-1.1 1.1-2.8 1.4-4.2.8s-2.4-2-2.4-3.6a3.8 3.8 0 0 1 3.8-3.8c1.6 0 3 .9 3.6 2.4s.3 3.1-.8 4.2zm3.4 14.4c-1.6-1.6-3.8-2.5-6.1-2.5s-4.5.9-6.1 2.5-2.5 3.8-2.5 6.1.9 4.5 2.5 6.1 3.8 2.5 6.1 2.5 4.5-.9 6.1-2.5 2.5-3.8 2.5-6.1-.9-4.5-2.5-6.1zm-3.5 8.8c-1.1 1.1-2.8 1.4-4.2.8s-2.4-2-2.4-3.6a3.8 3.8 0 0 1 3.8-3.8c1.6 0 3 .9 3.6 2.4.7 1.5.3 3.1-.8 4.2zm11.6-72h36.6v5.6H79.7v-5.6zm0 43.3h36.6v5.6H79.7v-5.6zm0 23.2h36.6v5.6H79.7V108zm0-55.2h36.6v5.6H79.7v-5.6zm0 11.2h20.6v5.6H79.7V64zM54.2 49.5c0-5.5 4.7-8 9.9-8s10.1 2.3 10 7.9c0 5.4-5 6-7.1 7.4-1 .7-1.4 1.7-1.4 3.5v.2h-4.9v-.2c0-5.1 2.1-6.3 4.1-7.3s4.2-1.3 4.2-3.6c0-2.9-2.6-3.5-5-3.5s-4.8 1.3-4.9 3.7h-4.9zM66.1 65c0 3.9-6 3.9-6 0 .1-4 6-4 6 0zm97.8 34.3h4.7v16.2h-4.7z"/><path d="M182.1 95.8l4.6-4.6-3.3-3.3-5.1 5.1c-2.9-1.8-6.2-2.9-9.8-3.3v-4.9h4.8v-4.7h-14.1v4.7h4.6v4.9c-3.6.4-7 1.5-10 3.4-1.8 1.1-3.4 2.4-4.8 3.9-4 4.2-6.4 9.9-6.4 16.1s2.4 11.9 6.4 16.1c1.4 1.5 3 2.8 4.8 3.9 3.6 2.2 7.8 3.5 12.3 3.5 13 0 23.5-10.6 23.5-23.5.1-6.8-2.8-13-7.5-17.3zm-15.9 36.1c-4.7 0-9-1.7-12.3-4.6-2-1.8-3.7-3.9-4.8-6.4-1.1-2.4-1.7-5-1.7-7.8s.6-5.4 1.7-7.8c1.1-2.5 2.8-4.7 4.8-6.4 3.3-2.9 7.6-4.6 12.3-4.6a18.78 18.78 0 0 1 18.8 18.8c.1 10.4-8.4 18.8-18.8 18.8z"/></svg>