<svg width="242" height="6" viewBox="0 0 242 6" fill="none" xmlns="http://www.w3.org/2000/svg">
<path d="M2.30506 0.525424C3.66116 0.460293 5.43879 0.529934 6.78977 0.625522C7.21316 0.655168 6.99877 0.787688 7.29104 0.81412C7.86267 0.865646 8.39522 0.800652 8.96011 0.862032C9.14732 0.883023 8.91429 1.09294 9.11059 1.11014C10.1863 1.20291 11.2039 1.14944 12.2936 1.19406C17.6611 1.41421 22.9373 1.49301 28.3704 1.58865C30.1619 1.62001 32.3396 1.81051 34.19 1.7272C34.406 1.71729 34.2773 1.53304 34.3184 1.51785C34.963 1.28537 34.7486 1.65734 35.1695 1.70676C36.8399 1.90188 38.6975 1.91886 40.305 1.84775C40.989 1.81696 40.3032 1.45099 40.9919 1.6564C41.0397 1.67028 40.8662 1.86594 41.0537 1.88681C41.4791 1.93375 42.2861 1.89877 42.6157 1.91428C43.251 1.94514 43.3561 1.94317 43.9571 1.9454C44.7785 1.95015 45.7556 2.04741 46.637 2.00308C46.8251 1.99304 46.5761 1.79246 46.8761 1.75833C47.1764 1.72425 47.9708 1.74126 48.2387 1.78854C48.5066 1.83585 48.3925 1.9935 48.4399 2.02963C48.83 2.33462 49.7489 1.91221 49.8671 1.90176C52.023 1.72377 53.8717 1.9644 55.8953 1.96371C57.4316 1.96268 59.0743 1.88324 60.5361 1.89413C62.2776 1.90789 63.7536 2.01658 65.4454 1.99789C65.624 1.99615 65.4147 1.76032 65.6328 1.75772C67.9497 1.73028 70.2505 1.75599 72.5574 1.91519C72.7888 1.93136 72.4906 2.13842 72.7218 2.16696C74.1369 2.33712 76.3761 2.74589 77.2166 1.84439C78.1752 1.87959 79.339 1.91596 80.1966 2.09769C80.7495 2.21464 80.2125 2.44021 80.8917 2.34396C81.0449 2.32252 80.8457 2.12498 81.0754 2.10776C82.0427 2.03544 83.0994 2.09965 84.0563 1.99759C84.2509 1.97636 84.1978 1.79936 84.2529 1.76749C84.7164 1.50935 85.4879 1.93606 85.6561 1.96707C86.9369 2.19829 87.8722 2.1073 89.0654 2.11294C89.3422 2.11435 89.0149 1.8766 89.2814 1.86941C90.6632 1.83534 92.0946 1.85577 93.4476 1.96127C93.7486 1.98531 93.4718 2.18783 93.6156 2.20968C94.2497 2.30356 94.3903 1.92104 94.9985 2.00369C95.1267 2.02062 95.0545 2.194 95.0779 2.21304C95.4439 2.51194 95.762 2.08842 95.8561 2.07907C97.0471 1.95131 97.8083 2.39345 98.9588 2.33084C99.0965 2.3229 98.7861 2.10353 99.173 2.09463C101.751 2.03407 104.477 2.09434 107.028 2.2698C107.425 2.29679 107.142 2.46159 107.167 2.4819C107.574 2.79932 107.837 2.37402 107.966 2.358C108.987 2.2427 109.94 2.59937 110.633 2.0928C114.955 2.2686 119.257 1.98413 123.543 2.43796C123.597 2.44321 123.499 2.65267 123.608 2.66226C124.917 2.77987 124.666 2.45433 125.532 2.05618C125.75 1.9562 126.414 2.4369 126.473 2.47213C126.687 2.60198 126.465 2.9136 126.536 2.93875C127.129 3.13621 127.033 2.10565 127.832 2.10531C127.857 2.10703 127.752 2.29672 127.82 2.31558C128.028 2.37479 128.235 2.29942 128.439 2.36471C128.906 2.5158 129.072 3.01656 129.786 2.72512C129.876 2.6873 129.738 2.10272 130.452 2.13034C130.737 2.14184 131.997 2.13182 132.35 2.16971C132.703 2.20754 132.461 2.39592 132.486 2.40408C133.437 2.65318 133.076 2.75642 133.552 3.12521C134.029 3.49261 133.896 2.61633 134.091 2.51852C134.285 2.42099 134.982 2.62652 135.153 2.69796C135.324 2.76944 135.111 2.88914 135.263 2.92959C136.272 3.19386 135.706 2.49464 136.038 2.35556C136.822 2.02624 137.433 2.6761 138.151 2.73977C138.345 2.75697 138.186 2.60896 138.359 2.59512C139.044 2.54226 139.456 2.74503 140.235 2.55911C140.363 2.52881 140.992 2.1381 141.4 2.42483C141.458 2.46618 141.294 2.62812 141.586 2.66439C142.022 2.71883 142.807 2.75423 143.276 2.7001C143.622 2.66005 143.225 2.39321 143.661 2.4761C143.855 2.51312 143.496 2.66922 143.859 2.72573C144.221 2.78223 145.146 2.77538 145.498 2.76999C145.849 2.76448 145.657 2.56206 145.685 2.54843C145.857 2.47032 146.532 2.37271 146.591 2.37295C149.596 2.34824 152.368 2.68943 155.294 2.5765C155.523 2.56794 155.37 2.35449 155.405 2.35098C156.192 2.26155 155.572 2.82906 156.121 3.01901C156.041 2.58586 156.366 2.66429 156.919 2.61679C157.186 2.59354 157.041 2.42583 157.065 2.40866C157.461 2.15392 157.736 2.48295 157.807 2.55026C158.069 2.79786 158.355 2.5053 158.533 2.6708C158.711 2.83507 158.301 3.07858 158.832 3.07547C158.981 2.92041 158.587 2.51522 158.99 2.44955C160.511 2.20115 163.351 2.51907 164.574 2.55209C165.795 2.58509 166.189 2.55648 166.901 2.61252C168.185 2.71383 167.715 2.41321 168.512 2.2756C169.313 2.13801 168.924 2.8777 169.039 3.03671C169.151 3.19565 169.275 3.03204 169.415 3.11941C169.555 3.20676 169.252 3.31488 169.581 3.34768C169.911 3.38045 170.812 3.09769 170.928 2.93142C171.175 2.57918 170.769 2.20948 171.641 2.33938C171.691 2.34709 171.528 2.54159 171.72 2.56125C173.245 2.71098 174.829 2.72026 176.352 2.85269C176.561 2.8712 176.374 3.08757 176.496 3.10079C177.765 3.23919 177.311 2.87436 178.007 2.46908C177.851 3.00842 178.236 3.33839 179.199 3.34158C179.778 3.34368 179.678 3.10812 180.053 2.9421C180.165 2.89206 180.575 3.0538 180.649 2.94302C180.894 2.5809 180.508 2.17553 181.501 2.33694C181.545 2.34461 181.406 2.54283 181.557 2.55484C182.53 2.63341 182.646 2.25464 183.698 2.20877C184.523 2.17278 185.99 2.40375 186.928 2.44131C186.909 3.04769 187.796 2.90883 188.155 2.49075C188.765 2.50787 189.423 2.48423 190.012 2.54202C190.215 2.56172 190.081 2.73728 190.107 2.75625C190.499 3.05383 190.764 2.64708 190.895 2.63113C192.321 2.47612 193.482 2.7844 194.843 2.48312C194.891 2.47227 194.969 2.05106 195.333 2.35861C195.356 2.37981 194.907 2.57145 195.547 2.58627C196.187 2.60112 197.394 2.82692 198.282 2.63174C198.497 2.58475 199.041 2.24282 199.478 2.50998C199.536 2.54625 199.472 2.66706 199.556 2.73428C199.828 2.94848 199.976 2.52274 200.295 2.88443C200.614 3.24609 201.277 3.51696 202.174 3.26742C202.202 3.26017 202.414 2.92273 202.696 2.92807C203.146 2.93687 203.785 3.00717 204.254 3.00497C204.479 3.0038 204.335 2.79426 204.374 2.79043C205.887 2.67302 206.963 2.85981 208.583 2.94088C208.88 2.95616 209.733 2.67043 210.308 2.89633C210.94 3.14361 210.291 4.17228 211.742 3.92721C212.327 3.82918 213.068 2.52413 214.12 3.20028C216.16 3.03274 218.046 3.37879 220.092 3.13955C220.184 3.12895 220.475 2.76472 220.691 2.76968C221.012 2.77774 221.188 2.94798 221.418 2.95919C222.378 3.01047 223.257 2.86482 224.183 2.88748C224.535 2.89571 224.412 3.07173 224.832 3.08157C225.251 3.09124 225.53 2.85946 226.098 2.9714C226.527 3.05673 226.956 3.53049 227.525 3.58572C227.547 3.1184 227.938 3.12803 228.633 3.00466C228.767 2.98073 228.623 2.81808 228.687 2.79837C228.944 2.71454 229.182 2.84934 229.426 2.75808C229.486 2.73617 229.488 2.57657 229.537 2.54965C229.95 2.31462 230.63 2.67361 230.747 2.73611C231.195 2.97349 231.404 2.76592 231.748 2.8594C232.091 2.95287 231.578 3.06971 231.979 3.12643C232.809 3.24375 233.876 3.21797 234.719 3.22531C235.056 3.22725 234.826 3.01422 234.875 3.00955C235.57 2.95552 236.274 3.18212 236.66 2.75778C237.142 3.85497 237.08 2.65136 238.074 2.871C238.153 2.88876 238.252 3.40762 237.951 3.48379C237.651 3.55989 237.195 3.3977 236.777 3.51644C236.678 3.54431 236.112 4.03051 236.035 4.05996C235.43 4.29013 235.344 3.51478 235.312 3.47219C234.949 3.01261 234.257 3.5364 234.075 3.5726C233.242 3.73843 232.534 3.62939 231.836 3.74777C231.381 3.82427 231.336 4.33216 230.978 4.31661C229.788 4.26523 229.372 3.55672 228.251 4.17104C228.01 4.30207 228.249 4.85717 227.388 4.42068C227.334 4.39316 226.694 3.99384 226.324 4.24642C226.278 4.27827 226.279 4.44004 226.218 4.45363C225.808 4.54154 225.534 4.41266 225.087 4.47439C224.64 4.53611 224.103 4.62813 223.593 4.57326C223.285 4.54045 222.891 4.23904 222.743 4.16524C222.328 3.95266 221.882 4.30121 221.624 4.04378C221.365 3.78507 221.872 3.39216 221.192 3.225C221.166 3.64531 221.108 4.07672 221.068 4.49941C219.575 4.48461 218.107 4.3487 216.61 4.36727C216.424 4.36999 216.614 4.59595 216.415 4.6047C215.576 4.64059 214.842 4.47951 213.971 4.54366C213.298 4.59418 212.559 4.83342 211.854 4.8937C211.423 4.41274 210.378 4.57602 209.618 4.53206C209.352 4.51688 209.37 4.38842 209.18 4.34652C208.466 4.19153 208.801 4.61655 208.605 4.68343C207.765 4.96889 207.694 4.00689 206.703 4.03066C206.651 4.0316 206.01 4.54438 205.922 4.57632C205.36 4.78454 205.829 4.39783 205.478 4.35995C204.836 4.29071 204.391 4.16825 203.639 4.31844C203.419 4.36293 202.893 4.68254 202.467 4.43532C202.411 4.40295 202.442 4.23346 202.397 4.22353C201.581 4.05807 201.559 4.59065 201.093 4.77102C200.626 4.95135 199.905 4.5837 199.759 4.47774C199.375 4.20363 200.053 4.3606 200.073 4.3337C200.317 4.01358 199.792 4.0687 199.39 4.04165C199.332 3.51945 198.77 3.5508 198.974 4.01571C198.997 4.06649 199.31 4.01779 199.39 4.04165C199.038 4.55399 198.42 4.61961 197.739 4.14083C197.42 3.91643 197.721 3.6548 196.752 3.75051C196.312 3.79372 196.482 4.15328 196.094 4.2513C195.207 4.47496 194.054 4.13956 193.139 4.19241C192.808 4.21159 193.131 4.40841 192.904 4.42831C192.302 4.48172 191.771 4.33404 191.167 4.40969C191.112 4.41679 191.246 4.62282 191.058 4.62545C189.633 4.64938 188.392 4.51741 186.904 4.51375C186.185 4.51208 184.899 4.62571 184.154 4.60287C182.864 4.56449 181.276 4.26489 180.173 4.33767C179.454 4.38426 179.611 4.59033 179.303 4.73073C178.709 5.0029 177.656 4.51539 177.514 4.4399C177.51 4.4374 178.129 4.38882 177.798 4.28304C177.606 4.06263 177.521 4.43895 177.514 4.4399C177.421 4.39114 176.185 4.34436 175.939 4.38375C175.806 4.40528 175.88 4.60052 175.811 4.60805C174.158 4.78278 172.502 4.8324 170.825 4.74111C170.795 4.73717 170.84 4.51878 170.77 4.51223C169.8 4.41513 169.178 4.68229 168.378 4.8409C167.577 4.99945 166.942 4.94635 166.469 4.57143C165.865 4.61864 164.998 4.45289 164.499 4.35232C164.001 4.25175 163.931 4.67686 163.887 4.68526C162.519 4.95425 161.728 4.71092 160.308 4.67306C159.633 4.65432 158.294 4.71598 157.564 4.76247C156.986 4.79992 156.638 4.70029 156.106 4.764C156.034 4.7725 156.107 4.96179 156.085 4.96907C155.491 5.19554 155.776 4.73281 155.654 4.65017C155.209 4.34964 154.935 4.18958 154.174 4.33095C153.998 4.36333 153.487 5.0296 153.168 5.06856C152.752 5.118 152.909 4.87918 152.473 4.93703C152.436 4.94176 152.444 5.0891 152.175 5.0826C150.928 5.05438 149.568 4.96865 148.272 4.98342C148.095 4.98487 148.322 5.21856 148.066 5.22451C146.866 5.25221 145.55 5.24356 144.381 5.13417C144.093 5.10652 144.274 4.94289 144.211 4.89431C143.828 4.60035 143.284 5.02746 143.194 5.0356C141.053 5.24086 139.414 4.85432 137.232 5.03835C137.113 5.04915 136.199 5.50703 135.791 5.11434C135.763 5.08821 135.36 4.68644 135.003 4.96114C134.98 4.97833 135.232 5.18516 134.793 5.16408C134.354 5.14305 133.648 5.28117 133.045 5.05391C132.854 4.98232 132.402 4.58155 131.833 4.90102C131.795 4.92332 130.916 5.6457 130.602 5.1473C130.551 5.06526 130.604 4.53783 129.924 4.80825C129.794 4.86067 130.03 4.97832 129.688 5.05178C129.164 5.165 128.469 5.02373 127.824 5.25869C127.712 5.30028 127.233 5.65826 126.849 5.38655C126.789 5.344 126.903 5.16792 126.701 5.14821C125.737 5.05369 124.727 5.17147 123.748 5.04964C123.402 5.00683 123.579 4.72218 123.218 4.64589C122.856 4.56964 122.128 4.49628 121.75 4.62636C121.372 4.7565 121.785 5.21018 121.218 5.24648C118.754 5.40415 116.314 5.13801 113.854 5.09908C113.489 5.09327 113.792 5.2556 113.254 5.25869C111.272 5.27076 107.849 5.42297 106.129 5.07802C104.751 4.80174 106.485 4.5914 105.432 4.47896C104.924 4.42533 104.374 4.95278 104.251 4.96938C103.053 5.13806 102.22 4.90441 101.141 4.97609C100.918 4.99097 101.137 5.20475 100.947 5.21505C100.3 5.25212 99.6192 5.1567 99.0004 5.17415C98.7228 5.18247 98.7739 5.34575 98.5185 5.33315C97.9073 5.30488 97.3668 5.23624 96.771 5.08321C96.7166 5.06927 97.0829 4.86616 96.6306 4.8586C95.8987 4.84695 94.9903 4.69599 94.1483 4.85189C93.8984 4.89879 93.8886 5.27195 93.3516 5.01424C93.2389 4.96042 93.3827 4.51233 92.7571 4.8995C92.6519 4.96383 91.601 5.48605 91.0852 5.14943C90.9492 5.06084 90.6019 4.69417 90.3015 4.75179C90.2607 4.76099 90.424 4.96143 90.175 4.98098C89.2976 5.04639 88.378 5.02501 87.4766 5.08779C87.2359 5.10495 87.5944 5.31236 87.2357 5.33132C86.2491 5.38374 85.0173 5.33093 84.0526 5.26601C83.6969 5.24168 83.9428 5.06986 83.9169 5.05117C83.5007 4.74704 83.2546 5.15754 83.1165 5.18148C82.2574 5.3248 81.6033 5.13197 80.8114 5.183C80.5929 5.19656 80.7478 5.39229 80.7043 5.40975C80.2532 5.58027 80.5892 5.22877 80.3037 5.19002C79.5036 5.08031 78.6119 5.09604 77.8028 5.12105C77.5057 5.13053 77.8396 5.35748 77.573 5.36336C75.9945 5.40247 74.3536 5.38075 72.8132 5.25563C72.5231 5.23166 72.7056 5.0569 72.6451 5.01699C72.2285 4.73773 71.6179 5.11864 71.4773 5.15493C70.8385 5.3206 70.5903 5.16606 70.0261 5.1949C67.27 5.33852 63.867 5.23617 61.2654 5.17293C57.8752 5.09155 55.2445 4.92529 52.0116 4.96846C51.8061 4.97099 52.0133 5.20348 51.8362 5.20864C49.5494 5.26468 47.2981 5.17384 45.0067 5.24099C44.8187 5.24608 45.0897 5.46648 44.7879 5.48207C44.1689 5.5156 43.3847 5.50362 42.7588 5.43325C42.4535 5.39934 42.863 5.21022 42.5557 5.17995C41.8402 5.10905 41.0732 5.09335 40.3383 5.12868C40.0255 5.1442 40.4974 5.36961 40.0909 5.37221C37.3217 5.39457 34.602 5.4334 31.8037 5.1415C31.6118 5.12145 31.4435 4.66333 31.0356 4.75118C31.0049 4.87832 31.0065 5.02788 30.9931 5.16378C26.9619 5.23698 22.9718 5.07816 18.9293 5.05361C18.7589 5.05263 19.0534 5.29536 18.7234 5.2947C16.8136 5.29111 14.959 5.35835 13.0054 5.11708C12.8116 5.09349 12.911 4.66645 12.3398 4.73104C12.2391 4.74282 11.3787 4.79978 11.1563 4.89248C11.1261 4.90646 11.2831 5.10578 11.0058 5.11159C9.39481 5.14186 7.70655 5.09635 6.09832 4.97457C5.83877 4.95453 6.11517 4.74227 5.93031 4.72616C4.61895 4.61348 3.19256 4.77484 1.93949 4.58211C1.10073 4.45235 1.41127 4.08543 0.96556 3.72427C0.902519 3.67331 0.383134 3.66524 0.356275 3.4551C0.28732 2.9267 0.538894 2.34811 0.435667 1.78488C0.413858 1.66357 -0.281733 1.79423 0.130101 1.50107C0.158872 1.48145 0.663179 1.38415 0.78739 1.2847C0.87387 1.21594 0.718031 1.00223 0.894477 0.914217C1.07091 0.826282 1.26478 1.00542 1.5573 0.90201C1.84969 0.797318 1.72113 0.554203 2.30506 0.525424ZM162.254 3.90279C161.793 3.69864 161.724 4.44638 162.224 4.26748C162.248 4.25794 162.278 3.91281 162.254 3.90279ZM218.116 3.78469C217.512 3.45489 217.099 3.93983 217.525 4.19454C217.951 4.44898 218.299 3.88467 218.116 3.78469ZM224.375 3.54391C223.669 3.28387 223.558 4.34419 224.314 4.12984C224.358 4.11773 224.416 3.55901 224.375 3.54391ZM3.03251 3.62142C3.02614 3.61149 2.65278 3.60182 2.64386 3.61166C2.44506 3.84914 3.19161 3.86832 3.03251 3.62142ZM230.586 3.28176C230.365 3.13833 229.731 3.30391 230.005 3.48226C230.225 3.62575 230.86 3.46018 230.586 3.28176ZM138.17 3.10476C138.163 3.09362 137.895 3.08359 137.9 3.14657C137.919 3.34943 138.291 3.29218 138.17 3.10476ZM241.142 3.26956C239.582 3.22964 238.637 2.35377 240.335 2.4526C240.643 2.47049 239.672 2.73191 240.064 2.81088C240.78 2.95474 241.256 2.4048 241.987 2.69949C242.119 2.75343 241.231 3.27378 241.139 3.27078C241.14 3.27037 241.141 3.26996 241.142 3.26956ZM161.988 3.00466C161.979 2.99478 161.609 2.9854 161.6 2.9952C161.399 3.23259 162.146 3.25162 161.988 3.00466ZM122.551 2.64242C122.531 2.62135 121.671 2.60165 121.643 2.62106C121.194 3.00925 122.933 3.05024 122.551 2.64242ZM186.943 2.45749C187.348 2.21868 187.831 2.19056 188.154 2.49045C187.752 2.47453 187.347 2.47218 186.943 2.45749Z" fill="#AD717A"/>
</svg>
