<svg width="90" height="5" viewBox="0 0 90 5" fill="none" xmlns="http://www.w3.org/2000/svg">
<path d="M0.857255 0.0254245C1.36159 -0.0397074 2.02269 0.0299344 2.52512 0.125522C2.68258 0.155168 2.60285 0.287688 2.71154 0.31412C2.92413 0.365646 3.12219 0.300652 3.33227 0.362032C3.4019 0.383023 3.31523 0.592935 3.38824 0.610139C3.78829 0.702908 4.16676 0.649441 4.57201 0.694062C6.56819 0.914213 8.53039 0.993012 10.551 1.08865C11.2172 1.12001 12.0271 1.31051 12.7153 1.2272C12.7956 1.21729 12.7477 1.03304 12.763 1.01785C13.0028 0.785374 12.923 1.15734 13.0796 1.20676C13.7008 1.40188 14.3916 1.41886 14.9895 1.34775C15.2438 1.31696 14.9888 0.950988 15.2449 1.1564C15.2627 1.17028 15.1982 1.36594 15.2679 1.38681C15.4261 1.43375 15.7262 1.39877 15.8488 1.41428C16.0851 1.44514 16.1242 1.44317 16.3477 1.4454C16.6532 1.45015 17.0165 1.54741 17.3443 1.50308C17.4143 1.49304 17.3217 1.29246 17.4333 1.25833C17.5449 1.22425 17.8404 1.24126 17.94 1.28854C18.0396 1.33585 17.9972 1.4935 18.0148 1.52963C18.1599 1.83462 18.5017 1.41221 18.5456 1.40176C19.3474 1.22377 20.0349 1.4644 20.7875 1.46371C21.3589 1.46268 21.9698 1.38324 22.5134 1.39413C23.1611 1.40789 23.71 1.51658 24.3392 1.49789C24.4056 1.49615 24.3278 1.26032 24.4089 1.25772C25.2706 1.23028 26.1262 1.25599 26.9842 1.41519C27.0702 1.43136 26.9593 1.63842 27.0453 1.66696C27.5716 1.83712 28.4043 2.24589 28.7169 1.34439C29.0734 1.37959 29.5062 1.41596 29.8252 1.59769C30.0308 1.71464 29.8311 1.94021 30.0837 1.84396C30.1407 1.82252 30.0666 1.62498 30.152 1.60776C30.5117 1.53544 30.9047 1.59965 31.2606 1.49759C31.333 1.47636 31.3132 1.29936 31.3337 1.26749C31.5061 1.00935 31.793 1.43606 31.8556 1.46707C32.3319 1.69829 32.6798 1.6073 33.1235 1.61294C33.2264 1.61435 33.1047 1.3766 33.2038 1.36941C33.7177 1.33534 34.2501 1.35577 34.7532 1.46127C34.8652 1.48531 34.7622 1.68783 34.8157 1.70968C35.0516 1.80356 35.1038 1.42104 35.33 1.50369C35.3777 1.52062 35.3508 1.694 35.3595 1.71304C35.4957 2.01194 35.614 1.58842 35.649 1.57907C36.0919 1.45131 36.375 1.89345 36.8029 1.83084C36.8541 1.8229 36.7386 1.60353 36.8825 1.59463C37.8411 1.53407 38.855 1.59434 39.8039 1.7698C39.9514 1.79679 39.8461 1.96159 39.8554 1.9819C40.0067 2.29932 40.1046 1.87402 40.1527 1.858C40.5322 1.7427 40.8867 2.09937 41.1445 1.5928C42.7518 1.7686 44.3516 1.48413 45.9456 1.93796C45.9658 1.94321 45.9295 2.15267 45.97 2.16226C46.4568 2.27987 46.3633 1.95433 46.6854 1.55618C46.7666 1.4562 47.0134 1.9369 47.0353 1.97213C47.1149 2.10198 47.0323 2.4136 47.059 2.43875C47.2795 2.63621 47.2435 1.60565 47.541 1.60531C47.5503 1.60703 47.5112 1.79672 47.5362 1.81558C47.6138 1.87479 47.6907 1.79942 47.7666 1.86471C47.9403 2.0158 48.0022 2.51656 48.2675 2.22512C48.3011 2.1873 48.2498 1.60272 48.5154 1.63034C48.6212 1.64184 49.0899 1.63182 49.2212 1.66971C49.3524 1.70754 49.2623 1.89592 49.2717 1.90408C49.6252 2.15318 49.4911 2.25642 49.6682 2.62521C49.8453 2.99261 49.7962 2.11633 49.8684 2.01852C49.9407 1.92099 50.1999 2.12652 50.2636 2.19796C50.3272 2.26944 50.2478 2.38914 50.3044 2.42959C50.6797 2.69386 50.4691 1.99464 50.5928 1.85556C50.8844 1.52624 51.1114 2.1761 51.3783 2.23977C51.4506 2.25697 51.3916 2.10896 51.4559 2.09512C51.7106 2.04226 51.8638 2.24503 52.1536 2.05911C52.201 2.02881 52.4352 1.6381 52.5868 1.92483C52.6083 1.96618 52.5473 2.12812 52.6558 2.16439C52.818 2.21883 53.1102 2.25423 53.2845 2.2001C53.4132 2.16005 53.2656 1.89321 53.4276 1.9761C53.4996 2.01312 53.3662 2.16922 53.5014 2.22573C53.636 2.28223 53.98 2.27538 54.1108 2.26999C54.2415 2.26448 54.17 2.06206 54.1805 2.04843C54.2444 1.97032 54.4952 1.87271 54.5173 1.87295C55.635 1.84824 56.6657 2.18943 57.7539 2.0765C57.8392 2.06794 57.7824 1.85449 57.7954 1.85098C58.0877 1.76155 57.8572 2.32906 58.0615 2.51901C58.032 2.08586 58.1525 2.16429 58.3584 2.11679C58.4577 2.09354 58.4036 1.92583 58.4127 1.90866C58.5599 1.65392 58.6623 1.98295 58.6887 2.05026C58.7862 2.29786 58.8922 2.0053 58.9586 2.1708C59.0249 2.33507 58.8723 2.57858 59.0698 2.57547C59.1252 2.42041 58.9786 2.01522 59.1285 1.94955C59.6943 1.70115 60.7504 2.01907 61.2053 2.05209C61.6593 2.08509 61.8059 2.05648 62.0705 2.11252C62.5483 2.21383 62.3732 1.91321 62.6699 1.7756C62.9675 1.63801 62.8228 2.3777 62.8656 2.53671C62.9076 2.69565 62.9534 2.53204 63.0057 2.61941C63.0577 2.70676 62.945 2.81488 63.0675 2.84768C63.19 2.88045 63.525 2.59769 63.5684 2.43142C63.6602 2.07918 63.5092 1.70948 63.8334 1.83938C63.8521 1.84709 63.7915 2.04159 63.8629 2.06125C64.43 2.21098 65.0191 2.22026 65.5854 2.35269C65.6633 2.3712 65.5936 2.58757 65.639 2.60079C66.111 2.73919 65.9423 2.37436 66.201 1.96908C66.1429 2.50842 66.2859 2.83839 66.6442 2.84158C66.8596 2.84368 66.8225 2.60812 66.9618 2.4421C67.0036 2.39206 67.156 2.5538 67.1836 2.44302C67.2746 2.0809 67.1311 1.67553 67.5005 1.83694C67.5167 1.84461 67.4651 2.04283 67.5211 2.05484C67.883 2.13341 67.9263 1.75464 68.3176 1.70877C68.6242 1.67278 69.1697 1.90375 69.5189 1.94131C69.5115 2.54769 69.8413 2.40883 69.9751 1.99075C70.2018 2.00787 70.4465 1.98423 70.6656 2.04202C70.7409 2.06172 70.6914 2.23728 70.7009 2.25625C70.8467 2.55383 70.9452 2.14708 70.9941 2.13113C71.5243 1.97612 71.9562 2.2844 72.4622 1.98312C72.4801 1.97227 72.5092 1.55106 72.6445 1.85861C72.6532 1.87981 72.4861 2.07145 72.7241 2.08627C72.9622 2.10112 73.4109 2.32692 73.7414 2.13174C73.8214 2.08475 74.0236 1.74282 74.186 2.00998C74.2076 2.04625 74.184 2.16706 74.2152 2.23428C74.3161 2.44848 74.3712 2.02274 74.4898 2.38443C74.6085 2.74609 74.8552 3.01696 75.1885 2.76742C75.1991 2.76017 75.278 2.42273 75.3828 2.42807C75.5501 2.43687 75.7876 2.50717 75.9623 2.50497C76.046 2.5038 75.9925 2.29426 76.007 2.29043C76.5694 2.17302 76.9697 2.35981 77.5722 2.44088C77.6826 2.45616 78 2.17043 78.2139 2.39633C78.4487 2.64361 78.2074 3.67228 78.747 3.42721C78.9647 3.32918 79.2403 2.02413 79.6314 2.70028C80.3901 2.53274 81.0917 2.87879 81.8524 2.63955C81.8866 2.62895 81.9948 2.26472 82.0752 2.26968C82.1946 2.27774 82.2602 2.44798 82.3454 2.45919C82.7027 2.51047 83.0296 2.36482 83.374 2.38748C83.5048 2.39571 83.4591 2.57173 83.615 2.58157C83.7709 2.59124 83.8749 2.35946 84.0861 2.4714C84.2456 2.55673 84.4051 3.03049 84.6169 3.08572C84.6249 2.6184 84.7704 2.62803 85.0288 2.50466C85.0785 2.48073 85.0252 2.31808 85.0488 2.29837C85.1444 2.21454 85.2329 2.34934 85.3238 2.25808C85.3458 2.23617 85.3469 2.07657 85.365 2.04965C85.5185 1.81462 85.7716 2.17361 85.815 2.23611C85.9816 2.47349 86.0595 2.26592 86.1872 2.3594C86.3148 2.45287 86.124 2.56971 86.273 2.62643C86.5819 2.74375 86.9787 2.71797 87.2924 2.72531C87.4175 2.72725 87.3321 2.51422 87.35 2.50955C87.6088 2.45552 87.8705 2.68212 88.014 2.25778C88.1935 3.35497 88.1701 2.15136 88.54 2.371C88.5692 2.38876 88.6062 2.90762 88.4943 2.98379C88.3825 3.05989 88.2128 2.8977 88.0576 3.01644C88.0209 3.04431 87.8103 3.53051 87.7816 3.55996C87.5566 3.79013 87.5247 3.01478 87.5128 2.97219C87.3778 2.51261 87.1205 3.0364 87.0527 3.0726C86.7428 3.23843 86.4794 3.12939 86.2202 3.24777C86.0506 3.32427 86.034 3.83216 85.9009 3.81661C85.4583 3.76523 85.3038 3.05672 84.8867 3.67104C84.7973 3.80207 84.8861 4.35717 84.5657 3.92068C84.5456 3.89316 84.3076 3.49384 84.1702 3.74642C84.1529 3.77827 84.1535 3.94004 84.1307 3.95363C83.9781 4.04154 83.8764 3.91266 83.7101 3.97439C83.5439 4.03611 83.3441 4.12813 83.1543 4.07326C83.0399 4.04045 82.8932 3.73904 82.8384 3.66524C82.6839 3.45266 82.5181 3.80121 82.4223 3.54378C82.3258 3.28507 82.5145 2.89216 82.2613 2.725C82.2519 3.14531 82.2304 3.57672 82.2153 3.99941C81.6603 3.98461 81.1142 3.8487 80.5574 3.86727C80.4884 3.86999 80.559 4.09595 80.485 4.1047C80.1727 4.14059 79.9 3.97951 79.5762 4.04366C79.3255 4.09418 79.0507 4.33342 78.7886 4.3937C78.6285 3.91274 78.2396 4.07602 77.9571 4.03206C77.8581 4.01688 77.8647 3.88842 77.7943 3.84652C77.5288 3.69153 77.6532 4.11655 77.5804 4.18343C77.2681 4.46889 77.2414 3.50689 76.8732 3.53066C76.8537 3.5316 76.6152 4.04438 76.5824 4.07632C76.3737 4.28454 76.5479 3.89783 76.4173 3.85995C76.1788 3.79071 76.0131 3.66825 75.7334 3.81844C75.6518 3.86293 75.4561 4.18254 75.2977 3.93532C75.2768 3.90295 75.2884 3.73346 75.2716 3.72353C74.968 3.55807 74.96 4.09065 74.7865 4.27102C74.6129 4.45135 74.3449 4.0837 74.2904 3.97774C74.1477 3.70363 74.3997 3.8606 74.4074 3.8337C74.4982 3.51358 74.3027 3.5687 74.1534 3.54165C74.1317 3.01945 73.9229 3.0508 73.9985 3.51571C74.0072 3.56649 74.1234 3.51779 74.1534 3.54165C74.0223 4.05399 73.7927 4.11961 73.5392 3.64083C73.4205 3.41643 73.5327 3.1548 73.1722 3.25051C73.0085 3.29372 73.0718 3.65328 72.9274 3.7513C72.5975 3.97496 72.1688 3.63956 71.8287 3.69241C71.7053 3.71159 71.8256 3.90841 71.7412 3.92831C71.5173 3.98172 71.3199 3.83404 71.0951 3.90969C71.0747 3.91679 71.1245 4.12282 71.0545 4.12545C70.5245 4.14938 70.063 4.01741 69.5096 4.01375C69.2422 4.01208 68.7642 4.12571 68.4872 4.10287C68.0071 4.06449 67.4165 3.76489 67.0064 3.83767C66.7389 3.88426 66.7976 4.09033 66.683 4.23073C66.4618 4.5029 66.0704 4.01539 66.0176 3.9399C66.016 3.9374 66.2462 3.88882 66.1234 3.78304C66.052 3.56263 66.0202 3.93895 66.0176 3.9399C65.983 3.89114 65.5232 3.84436 65.4319 3.88375C65.3823 3.90528 65.4101 4.10052 65.3842 4.10805C64.7694 4.28278 64.1535 4.3324 63.5299 4.24111C63.5189 4.23717 63.5355 4.01878 63.5097 4.01223C63.1487 3.91513 62.9175 4.18229 62.6198 4.3409C62.3221 4.49945 62.086 4.44635 61.9098 4.07143C61.6852 4.11864 61.3629 3.95289 61.1775 3.85232C60.992 3.75175 60.9662 4.17686 60.9498 4.18526C60.4409 4.45425 60.1468 4.21092 59.6188 4.17306C59.3678 4.15432 58.8699 4.21598 58.5981 4.26247C58.3833 4.29992 58.2539 4.20029 58.056 4.264C58.0292 4.2725 58.0562 4.46179 58.0481 4.46907C57.8272 4.69554 57.9333 4.23281 57.8877 4.15017C57.7224 3.84964 57.6203 3.68958 57.3374 3.83095C57.2722 3.86333 57.0821 4.5296 56.9632 4.56856C56.8085 4.618 56.8669 4.37918 56.705 4.43703C56.6912 4.44176 56.694 4.5891 56.5941 4.5826C56.1303 4.55438 55.6245 4.46865 55.1425 4.48342C55.0767 4.48487 55.1611 4.71856 55.066 4.72451C54.6196 4.75221 54.1303 4.74356 53.6954 4.63417C53.5884 4.60652 53.6555 4.44289 53.6323 4.39431C53.4896 4.10035 53.2873 4.52746 53.2539 4.5356C52.4577 4.74086 51.8483 4.35432 51.0367 4.53835C50.9925 4.54915 50.6525 5.00703 50.5008 4.61434C50.4904 4.58821 50.3403 4.18644 50.2076 4.46114C50.1994 4.47833 50.2929 4.68516 50.1297 4.66408C49.9665 4.64305 49.7038 4.78117 49.4794 4.55391C49.4084 4.48232 49.2405 4.08155 49.0286 4.40102C49.0148 4.42332 48.6877 5.1457 48.571 4.6473C48.5521 4.56526 48.5719 4.03783 48.319 4.30825C48.2707 4.36067 48.3584 4.47832 48.2311 4.55178C48.0361 4.665 47.7777 4.52373 47.5379 4.75869C47.4961 4.80028 47.3181 5.15826 47.1754 4.88655C47.153 4.844 47.1955 4.66792 47.1201 4.64821C46.7616 4.55369 46.3862 4.67147 46.0221 4.54964C45.8932 4.50683 45.9591 4.22218 45.8247 4.14589C45.6903 4.06964 45.4195 3.99628 45.2788 4.12636C45.1382 4.2565 45.2919 4.71018 45.0811 4.74648C44.1649 4.90415 43.2573 4.63801 42.3424 4.59908C42.2067 4.59327 42.3192 4.7556 42.1192 4.75869C41.382 4.77076 40.1092 4.92297 39.4695 4.57802C38.9569 4.30174 39.6019 4.0914 39.2103 3.97896C39.0213 3.92533 38.8168 4.45278 38.7711 4.46938C38.3254 4.63806 38.0157 4.40441 37.6145 4.47609C37.5317 4.49097 37.6129 4.70475 37.5424 4.71505C37.3016 4.75212 37.0485 4.6567 36.8183 4.67415C36.7151 4.68247 36.7341 4.84575 36.6391 4.83315C36.4118 4.80488 36.2108 4.73624 35.9892 4.58321C35.969 4.56927 36.1052 4.36616 35.937 4.3586C35.6648 4.34695 35.327 4.19599 35.0138 4.35189C34.9209 4.39879 34.9173 4.77195 34.7175 4.51424C34.6756 4.46042 34.7291 4.01233 34.4964 4.3995C34.4573 4.46383 34.0665 4.98605 33.8747 4.64943C33.8241 4.56084 33.6949 4.19417 33.5832 4.25179C33.568 4.26099 33.6287 4.46143 33.5362 4.48098C33.2098 4.54639 32.8679 4.52501 32.5326 4.58779C32.4431 4.60495 32.5764 4.81236 32.443 4.83132C32.0761 4.88374 31.618 4.83093 31.2592 4.76601C31.127 4.74168 31.2184 4.56986 31.2088 4.55117C31.054 4.24704 30.9625 4.65754 30.9111 4.68148C30.5916 4.8248 30.3483 4.63197 30.0538 4.683C29.9726 4.69656 30.0302 4.89229 30.014 4.90975C29.8462 5.08027 29.9712 4.72877 29.865 4.69002C29.5675 4.58031 29.2358 4.59604 28.9349 4.62105C28.8244 4.63053 28.9486 4.85748 28.8494 4.86336C28.2624 4.90247 27.6522 4.88075 27.0793 4.75563C26.9714 4.73166 27.0393 4.5569 27.0168 4.51699C26.8618 4.23773 26.6347 4.61864 26.5825 4.65493C26.3449 4.8206 26.2526 4.66606 26.0428 4.6949C25.0178 4.83852 23.7522 4.73617 22.7846 4.67293C21.5238 4.59155 20.5455 4.42529 19.3432 4.46846C19.2667 4.47099 19.3438 4.70348 19.2779 4.70864C18.4275 4.76468 17.5902 4.67384 16.738 4.74099C16.6681 4.74608 16.7689 4.96648 16.6567 4.98207C16.4264 5.0156 16.1348 5.00362 15.902 4.93325C15.7885 4.89934 15.9408 4.71022 15.8265 4.67995C15.5604 4.60905 15.2752 4.59335 15.0018 4.62868C14.8855 4.6442 15.061 4.86961 14.9098 4.87221C13.88 4.89457 12.8685 4.9334 11.8278 4.6415C11.7565 4.62145 11.6939 4.16333 11.5422 4.25118C11.5307 4.37832 11.5314 4.52788 11.5264 4.66378C10.0272 4.73698 8.54325 4.57816 7.03982 4.55361C6.97644 4.55263 7.08598 4.79536 6.96326 4.7947C6.25298 4.79111 5.56325 4.85835 4.83672 4.61708C4.76463 4.59349 4.80161 4.16645 4.58918 4.23104C4.55171 4.24282 4.23176 4.29978 4.14904 4.39248C4.1378 4.40646 4.19618 4.60578 4.09308 4.61159C3.49394 4.64186 2.86607 4.59635 2.26797 4.47457C2.17144 4.45453 2.27424 4.24227 2.20549 4.22616C1.71779 4.11348 1.18732 4.27484 0.721299 4.08211C0.409363 3.95235 0.524851 3.58543 0.359093 3.22427C0.335648 3.17331 0.142488 3.16524 0.132499 2.9551C0.106855 2.4267 0.200415 1.84811 0.162025 1.28488C0.153914 1.16357 -0.104777 1.29423 0.0483848 1.00107C0.0590848 0.981448 0.246637 0.88415 0.292831 0.784699C0.324993 0.715941 0.267036 0.502235 0.332657 0.414217C0.398272 0.326282 0.470374 0.505422 0.579163 0.40201C0.687903 0.297318 0.640089 0.0542033 0.857255 0.0254245ZM60.3425 3.40279C60.1708 3.19864 60.1455 3.94638 60.3312 3.76748C60.3402 3.75794 60.3514 3.41281 60.3425 3.40279ZM81.1174 3.28469C80.8929 2.95489 80.7393 3.43983 80.8976 3.69454C81.056 3.94898 81.1857 3.38467 81.1174 3.28469ZM83.4451 3.04391C83.1827 2.78387 83.1414 3.84419 83.4224 3.62984C83.4388 3.61773 83.4604 3.05901 83.4451 3.04391ZM1.12779 3.12142C1.12542 3.11149 0.986573 3.10182 0.983255 3.11166C0.909319 3.34914 1.18696 3.36832 1.12779 3.12142ZM85.755 2.78176C85.6731 2.63833 85.4373 2.80391 85.539 2.98226C85.6209 3.12575 85.857 2.96018 85.755 2.78176ZM51.3855 2.60476C51.3828 2.59362 51.2833 2.58359 51.2853 2.64657C51.2921 2.84943 51.4306 2.79218 51.3855 2.60476ZM89.6809 2.76956C89.1008 2.72964 88.7491 1.85377 89.3808 1.9526C89.4952 1.97049 89.1343 2.23191 89.2799 2.31088C89.5463 2.45474 89.7232 1.9048 89.995 2.19949C90.0442 2.25343 89.714 2.77378 89.6798 2.77078C89.6802 2.77037 89.6805 2.76996 89.6809 2.76956ZM60.2436 2.50466C60.2402 2.49478 60.1024 2.4854 60.0991 2.4952C60.0245 2.73259 60.3021 2.75162 60.2436 2.50466ZM45.5769 2.14242C45.5692 2.12135 45.2495 2.10165 45.239 2.12106C45.0722 2.50925 45.7187 2.55024 45.5769 2.14242ZM69.5244 1.95749C69.6747 1.71868 69.8546 1.69056 69.9744 1.99045C69.825 1.97453 69.6746 1.97218 69.5244 1.95749Z" fill="#AD717A"/>
</svg>
