<svg width="331" height="5" viewBox="0 0 331 5" fill="none" xmlns="http://www.w3.org/2000/svg">
<path d="M3.15279 0.025608C5.00762 -0.039525 7.43901 0.0301152 9.28683 0.125702C9.86594 0.155347 9.5727 0.287868 9.97246 0.314299C10.7543 0.365824 11.4827 0.300831 12.2554 0.36221C12.5114 0.3832 12.1927 0.593113 12.4612 0.610317C13.9325 0.703085 15.3244 0.649617 16.8149 0.694237C24.1564 0.914383 31.3729 0.993177 38.8042 1.08881C41.2545 1.12017 44.2332 1.31067 46.7641 1.22736C47.0595 1.21744 46.8834 1.03319 46.9396 1.01801C47.8212 0.785529 47.5281 1.15749 48.1037 1.20691C50.3885 1.40204 52.9292 1.41901 55.128 1.3479C56.0634 1.3171 55.1255 0.951138 56.0674 1.15655C56.1328 1.17043 55.8955 1.36609 56.152 1.38696C56.7338 1.43389 57.8375 1.39892 58.2884 1.41442C59.1574 1.44529 59.3012 1.44332 60.1231 1.44555C61.2467 1.4503 62.5831 1.54756 63.7886 1.50323C64.0459 1.49318 63.7053 1.29261 64.1156 1.25847C64.5264 1.2244 65.613 1.2414 65.9793 1.28869C66.3458 1.33599 66.1898 1.49364 66.2546 1.52977C66.7881 1.83477 68.045 1.41235 68.2067 1.4019C71.1554 1.22391 73.684 1.46454 76.4519 1.46385C78.5532 1.46282 80.7999 1.38337 82.7993 1.39427C85.1813 1.40802 87.2001 1.51671 89.5142 1.49802C89.7584 1.49628 89.4722 1.26045 89.7705 1.25785C92.9395 1.2304 96.0865 1.25611 99.2418 1.41531C99.5582 1.43149 99.1504 1.63854 99.4665 1.66708C101.402 1.83724 104.465 2.24601 105.614 1.34451C106.926 1.37971 108.517 1.41608 109.69 1.5978C110.447 1.71476 109.712 1.94033 110.641 1.84408C110.851 1.82263 110.578 1.62509 110.892 1.60787C112.215 1.53555 113.661 1.59976 114.97 1.4977C115.236 1.47647 115.163 1.29947 115.239 1.2676C115.872 1.00946 116.928 1.43617 117.158 1.46718C118.91 1.6984 120.189 1.60741 121.821 1.61305C122.2 1.61446 121.752 1.3767 122.116 1.36952C124.006 1.33544 125.964 1.35588 127.815 1.46137C128.226 1.48541 127.848 1.68794 128.044 1.70979C128.912 1.80366 129.104 1.42115 129.936 1.50379C130.111 1.52073 130.013 1.6941 130.045 1.71314C130.545 2.01205 130.98 1.58852 131.109 1.57917C132.738 1.45141 133.779 1.89354 135.353 1.83094C135.541 1.823 135.117 1.60363 135.646 1.59473C139.171 1.53417 142.9 1.59443 146.39 1.76989C146.932 1.79688 146.545 1.96168 146.579 1.98199C147.136 2.29941 147.496 1.87411 147.673 1.85809C149.068 1.74279 150.372 2.09946 151.32 1.59289C157.232 1.76868 163.115 1.48421 168.978 1.93803C169.052 1.94329 168.919 2.15275 169.067 2.16233C170.858 2.27994 170.514 1.9544 171.699 1.55626C171.997 1.45628 172.905 1.93697 172.985 1.97221C173.278 2.10205 172.974 2.41367 173.072 2.43882C173.883 2.63628 173.751 1.60572 174.845 1.60539C174.879 1.60711 174.736 1.79679 174.828 1.81565C175.113 1.87486 175.396 1.79949 175.675 1.86478C176.314 2.01587 176.541 2.51664 177.517 2.2252C177.641 2.18737 177.452 1.60279 178.429 1.63041C178.818 1.64191 180.542 1.63189 181.025 1.66977C181.507 1.70761 181.176 1.89599 181.21 1.90415C182.51 2.15325 182.017 2.25649 182.669 2.62528C183.32 2.99267 183.139 2.11639 183.405 2.01859C183.671 1.92106 184.624 2.12658 184.858 2.19803C185.092 2.26951 184.8 2.38921 185.008 2.42966C186.389 2.69393 185.614 1.9947 186.069 1.85562C187.141 1.52631 187.976 2.17616 188.958 2.23984C189.224 2.25703 189.007 2.10903 189.243 2.09518C190.18 2.04232 190.744 2.24509 191.809 2.05917C191.984 2.02887 192.845 1.63816 193.403 1.92489C193.482 1.96624 193.257 2.12818 193.656 2.16445C194.253 2.21889 195.327 2.25429 195.968 2.20016C196.442 2.16011 195.899 1.89327 196.495 1.97616C196.76 2.01317 196.269 2.16928 196.766 2.22579C197.261 2.28229 198.526 2.27543 199.008 2.27004C199.488 2.26453 199.225 2.06212 199.264 2.04848C199.499 1.97037 200.421 1.87277 200.503 1.87301C204.613 1.8483 208.404 2.18948 212.406 2.07655C212.72 2.06798 212.511 1.85454 212.559 1.85103C213.634 1.7616 212.786 2.3291 213.537 2.51906C213.429 2.08591 213.872 2.16434 214.629 2.11683C214.994 2.09359 214.796 1.92587 214.829 1.9087C215.37 1.65396 215.747 1.983 215.844 2.05031C216.202 2.29791 216.593 2.00535 216.837 2.17085C217.08 2.33511 216.519 2.57863 217.246 2.57551C217.449 2.42046 216.91 2.01527 217.462 1.9496C219.542 1.7012 223.426 2.01911 225.099 2.05213C226.769 2.08512 227.308 2.05652 228.281 2.11255C230.039 2.21387 229.395 1.91324 230.486 1.77564C231.58 1.63805 231.048 2.37773 231.206 2.53674C231.36 2.69568 231.529 2.53207 231.721 2.61945C231.912 2.7068 231.498 2.81492 231.948 2.84772C232.399 2.88048 233.631 2.59772 233.79 2.43146C234.128 2.07921 233.573 1.70952 234.765 1.83942C234.834 1.84713 234.611 2.04162 234.874 2.06128C236.959 2.21101 239.126 2.22029 241.209 2.35272C241.495 2.37123 241.239 2.5876 241.406 2.60082C243.142 2.73922 242.521 2.37439 243.472 1.96911C243.259 2.50845 243.785 2.83842 245.103 2.8416C245.895 2.84371 245.758 2.60815 246.271 2.44213C246.424 2.39208 246.985 2.55382 247.086 2.44304C247.421 2.08092 246.893 1.67555 248.252 1.83697C248.311 1.84464 248.121 2.04286 248.327 2.05486C249.659 2.13344 249.818 1.75466 251.257 1.70879C252.385 1.6728 254.391 1.90377 255.675 1.94133C255.648 2.54771 256.861 2.40885 257.353 1.99077C258.186 2.00789 259.087 1.98425 259.892 2.04204C260.169 2.06174 259.987 2.2373 260.022 2.25627C260.558 2.55384 260.921 2.14709 261.101 2.13115C263.05 1.97614 264.639 2.28442 266.5 1.98313C266.566 1.97228 266.673 1.55108 267.17 1.85862C267.202 1.87982 266.588 2.07146 267.463 2.08628C268.339 2.10113 269.989 2.32693 271.204 2.13175C271.499 2.08476 272.243 1.74283 272.84 2.00999C272.919 2.04626 272.832 2.16707 272.947 2.23429C273.318 2.44849 273.521 2.02275 273.957 2.38443C274.393 2.7461 275.301 3.01696 276.527 2.76743C276.566 2.76017 276.856 2.42274 277.241 2.42807C277.857 2.43688 278.73 2.50717 279.373 2.50497C279.68 2.5038 279.483 2.29427 279.537 2.29044C281.605 2.17302 283.077 2.35982 285.293 2.44088C285.699 2.45616 286.867 2.17043 287.653 2.39633C288.517 2.64361 287.629 3.67228 289.614 3.42721C290.415 3.32918 291.428 2.02413 292.867 2.70028C295.657 2.53273 298.237 2.87878 301.035 2.63954C301.161 2.62894 301.559 2.26471 301.854 2.26967C302.294 2.27773 302.535 2.44797 302.848 2.45918C304.162 2.51046 305.364 2.36481 306.631 2.38746C307.112 2.3957 306.944 2.57172 307.518 2.58156C308.091 2.59123 308.473 2.35944 309.25 2.47139C309.837 2.55671 310.423 3.03048 311.202 3.0857C311.232 2.61838 311.766 2.62801 312.717 2.50465C312.9 2.48071 312.704 2.31806 312.79 2.29835C313.142 2.21452 313.468 2.34932 313.802 2.25807C313.883 2.23615 313.887 2.07656 313.953 2.04963C314.518 1.8146 315.449 2.17359 315.609 2.23609C316.221 2.47347 316.508 2.2659 316.977 2.35938C317.447 2.45285 316.745 2.56969 317.293 2.62641C318.429 2.74373 319.888 2.71795 321.042 2.72528C321.502 2.72722 321.188 2.51419 321.254 2.50952C322.206 2.45549 323.168 2.6821 323.696 2.25775C324.356 3.35494 324.27 2.15133 325.63 2.37097C325.738 2.38874 325.874 2.90759 325.463 2.98376C325.051 3.05986 324.427 2.89768 323.856 3.01642C323.721 3.04428 322.947 3.53048 322.841 3.55994C322.014 3.79011 321.896 3.01476 321.853 2.97217C321.356 2.51259 320.41 3.03638 320.161 3.07257C319.021 3.23841 318.052 3.12937 317.099 3.24775C316.475 3.32425 316.414 3.83214 315.924 3.81659C314.297 3.76521 313.728 3.0567 312.194 3.67103C311.866 3.80205 312.192 4.35715 311.014 3.92066C310.94 3.89314 310.065 3.49383 309.559 3.74641C309.496 3.77825 309.498 3.94003 309.414 3.95362C308.853 4.04153 308.479 3.91265 307.867 3.97437C307.256 4.0361 306.521 4.12812 305.823 4.07325C305.402 4.04044 304.863 3.73903 304.661 3.66523C304.093 3.45265 303.483 3.8012 303.131 3.54377C302.776 3.28506 303.47 2.89215 302.539 2.72499C302.504 3.1453 302.425 3.57671 302.37 3.9994C300.329 3.9846 298.32 3.84869 296.272 3.86726C296.018 3.86999 296.278 4.09595 296.006 4.10469C294.857 4.14059 293.854 3.97951 292.663 4.04366C291.742 4.09418 290.731 4.33342 289.767 4.39369C289.178 3.91274 287.748 4.07602 286.709 4.03206C286.345 4.01688 286.369 3.88842 286.11 3.84652C285.134 3.69153 285.591 4.11655 285.324 4.18343C284.175 4.46889 284.077 3.50689 282.723 3.53066C282.651 3.5316 281.774 4.04439 281.653 4.07632C280.886 4.28455 281.526 3.89784 281.046 3.85995C280.169 3.79071 279.559 3.66825 278.53 3.81845C278.23 3.86293 277.511 4.18255 276.928 3.93533C276.851 3.90296 276.894 3.73346 276.832 3.72354C275.716 3.55808 275.686 4.09065 275.048 4.27102C274.41 4.45135 273.424 4.08371 273.223 3.97775C272.699 3.70364 273.626 3.86061 273.654 3.83371C273.988 3.51359 273.269 3.56871 272.72 3.54166C272.64 3.01946 271.872 3.05081 272.15 3.51572C272.182 3.5665 272.609 3.5178 272.72 3.54166C272.237 4.054 271.393 4.11962 270.461 3.64084C270.024 3.41644 270.437 3.15481 269.111 3.25052C268.509 3.29373 268.742 3.65329 268.211 3.75132C266.997 3.97498 265.421 3.63957 264.17 3.69242C263.716 3.71161 264.158 3.90842 263.848 3.92832C263.025 3.98173 262.299 3.83406 261.472 3.90971C261.397 3.91681 261.58 4.12284 261.323 4.12546C259.373 4.14939 257.676 4.01743 255.641 4.01377C254.657 4.0121 252.899 4.12573 251.881 4.10289C250.115 4.06451 247.943 3.76491 246.435 3.83769C245.451 3.88428 245.667 4.09035 245.245 4.23076C244.432 4.50292 242.992 4.01542 242.798 3.93993C242.792 3.93743 243.639 3.88885 243.187 3.78307C242.924 3.56266 242.808 3.93897 242.798 3.93993C242.671 3.89116 240.98 3.84439 240.644 3.88378C240.462 3.90531 240.564 4.10055 240.469 4.10808C238.207 4.28281 235.942 4.33243 233.649 4.24114C233.609 4.2372 233.669 4.01881 233.574 4.01226C232.247 3.91516 231.397 4.18232 230.302 4.34094C229.207 4.49948 228.338 4.44638 227.69 4.07147C226.864 4.11868 225.679 3.95293 224.997 3.85236C224.315 3.75179 224.22 4.1769 224.16 4.1853C222.288 4.45429 221.206 4.21097 219.265 4.1731C218.341 4.15437 216.51 4.21603 215.511 4.26252C214.721 4.29997 214.245 4.20034 213.517 4.26404C213.418 4.27255 213.518 4.46183 213.488 4.46912C212.676 4.69559 213.066 4.23286 212.898 4.15021C212.29 3.84968 211.915 3.68962 210.874 3.831C210.634 3.86338 209.935 4.52965 209.498 4.56861C208.929 4.61805 209.144 4.37923 208.548 4.43708C208.497 4.44181 208.508 4.58915 208.141 4.58265C206.435 4.55444 204.575 4.46871 202.802 4.48347C202.56 4.48492 202.87 4.71862 202.52 4.72456C200.879 4.75226 199.079 4.74362 197.48 4.63423C197.086 4.60657 197.333 4.44295 197.247 4.39436C196.723 4.1004 195.979 4.52752 195.856 4.53566C192.928 4.74092 190.686 4.35438 187.702 4.53841C187.539 4.54922 186.289 5.0071 185.731 4.6144C185.693 4.58828 185.141 4.18651 184.652 4.46121C184.622 4.47839 184.966 4.68523 184.366 4.66415C183.765 4.64311 182.799 4.78124 181.974 4.55398C181.713 4.48239 181.096 4.08161 180.316 4.40109C180.266 4.42339 179.063 5.14577 178.633 4.64737C178.564 4.56532 178.637 4.0379 177.706 4.30832C177.529 4.36074 177.851 4.47839 177.383 4.55185C176.666 4.66507 175.716 4.52381 174.834 4.75876C174.68 4.80035 174.026 5.15834 173.501 4.88663C173.418 4.84407 173.575 4.66799 173.297 4.64829C171.979 4.55376 170.598 4.67155 169.259 4.54972C168.785 4.50691 169.027 4.22225 168.533 4.14597C168.039 4.06972 167.043 3.99636 166.526 4.12644C166.008 4.25658 166.573 4.71025 165.798 4.74656C162.429 4.90423 159.091 4.63809 155.726 4.59916C155.227 4.59335 155.641 4.75569 154.905 4.75877C152.194 4.77085 147.513 4.92306 145.16 4.57811C143.275 4.30183 145.647 4.09149 144.207 3.97906C143.512 3.92542 142.759 4.45287 142.592 4.46947C140.952 4.63815 139.813 4.4045 138.338 4.47619C138.033 4.49107 138.332 4.70484 138.073 4.71514C137.187 4.75222 136.256 4.6568 135.41 4.67425C135.03 4.68257 135.1 4.84585 134.751 4.83325C133.915 4.80498 133.175 4.73634 132.36 4.58331C132.286 4.56937 132.787 4.36626 132.168 4.3587C131.167 4.34705 129.925 4.19609 128.773 4.35199C128.431 4.39889 128.418 4.77205 127.683 4.51434C127.529 4.46052 127.726 4.01243 126.87 4.3996C126.726 4.46394 125.289 4.98616 124.584 4.64954C124.397 4.56094 123.922 4.19427 123.512 4.2519C123.456 4.26109 123.679 4.46153 123.339 4.48108C122.138 4.5465 120.881 4.52512 119.648 4.5879C119.319 4.60506 119.809 4.81247 119.318 4.83143C117.969 4.88385 116.284 4.83104 114.965 4.76612C114.478 4.74179 114.814 4.56998 114.779 4.55128C114.21 4.24715 113.873 4.65765 113.684 4.68159C112.509 4.82492 111.614 4.63209 110.531 4.68312C110.232 4.69668 110.444 4.89241 110.385 4.90986C109.768 5.08039 110.227 4.72888 109.837 4.69014C108.743 4.58043 107.523 4.59616 106.416 4.62117C106.01 4.63064 106.467 4.8576 106.102 4.86348C103.943 4.90259 101.699 4.88087 99.5915 4.75576C99.1948 4.73179 99.4444 4.55702 99.3617 4.51711C98.7918 4.23785 97.9567 4.61876 97.7645 4.65505C96.8907 4.82073 96.5512 4.66618 95.7795 4.69503C92.0098 4.83865 87.3552 4.7363 83.7968 4.67306C79.1599 4.59168 75.5617 4.42543 71.1399 4.4686C70.8588 4.47113 71.1422 4.70362 70.8999 4.70878C67.7721 4.76482 64.6928 4.67398 61.5587 4.74113C61.3016 4.74623 61.6723 4.96663 61.2595 4.98222C60.4128 5.01575 59.3402 5.00377 58.4841 4.93339C58.0666 4.89949 58.6267 4.71036 58.2064 4.6801C57.2277 4.60919 56.1787 4.5935 55.1734 4.62883C54.7456 4.64435 55.3911 4.86976 54.835 4.87236C51.0474 4.89473 47.3276 4.93355 43.5001 4.64166C43.2377 4.62161 43.0074 4.16348 42.4495 4.25134C42.4075 4.37848 42.4098 4.52804 42.3914 4.66393C36.8777 4.73714 31.4202 4.57833 25.8909 4.55378C25.6578 4.55279 26.0607 4.79553 25.6093 4.79487C22.9971 4.79128 20.4604 4.85853 17.7884 4.61726C17.5233 4.59366 17.6593 4.16663 16.878 4.23121C16.7402 4.243 15.5635 4.29995 15.2592 4.39265C15.2179 4.40663 15.4326 4.60596 15.0534 4.61177C12.8499 4.64204 10.5408 4.59653 8.34109 4.47475C7.98608 4.45471 8.36415 4.24245 8.11129 4.22634C6.31765 4.11366 4.36668 4.27502 2.65278 4.0823C1.50555 3.95253 1.93029 3.58562 1.32066 3.22445C1.23444 3.1735 0.52404 3.16542 0.487302 2.95529C0.392987 2.42689 0.737082 1.84829 0.595891 1.28507C0.566061 1.16375 -0.385346 1.29442 0.177948 1.00125C0.2173 0.981634 0.907075 0.884335 1.07697 0.784884C1.19525 0.716126 0.982098 0.50242 1.22344 0.414402C1.46475 0.326467 1.72993 0.505607 2.13003 0.402195C2.52995 0.297502 2.3541 0.0543874 3.15279 0.025608ZM221.926 3.40284C221.295 3.19868 221.202 3.94642 221.885 3.76752C221.918 3.75799 221.959 3.41285 221.926 3.40284ZM298.332 3.28468C297.506 2.95488 296.941 3.43982 297.523 3.69453C298.106 3.94897 298.583 3.38466 298.332 3.28468ZM306.892 3.0439C305.928 2.78386 305.776 3.84418 306.809 3.62983C306.869 3.61772 306.949 3.05899 306.892 3.0439ZM4.14778 3.12161C4.13906 3.11168 3.6284 3.102 3.61619 3.11184C3.34427 3.34932 4.36539 3.36851 4.14778 3.12161ZM315.388 2.78174C315.087 2.63831 314.219 2.80389 314.594 2.98225C314.895 3.12573 315.763 2.96016 315.388 2.78174ZM188.985 2.60483C188.975 2.59368 188.609 2.58365 188.616 2.64663C188.641 2.84949 189.15 2.79224 188.985 2.60483ZM329.826 2.76953C327.693 2.72962 326.4 1.85374 328.723 1.95258C329.143 1.97046 327.816 2.23189 328.352 2.31085C329.331 2.45471 329.982 1.90477 330.982 2.19946C331.163 2.2534 329.948 2.77375 329.823 2.77075C329.824 2.77034 329.825 2.76994 329.826 2.76953ZM221.563 2.50471C221.55 2.49482 221.043 2.48544 221.031 2.49525C220.757 2.73263 221.778 2.75166 221.563 2.50471ZM167.622 2.1425C167.594 2.12143 166.417 2.10172 166.379 2.12114C165.765 2.50933 168.143 2.55031 167.622 2.1425ZM255.695 1.95751C256.248 1.71869 256.91 1.69058 257.35 1.99046C256.801 1.97454 256.248 1.9722 255.695 1.95751Z" fill="#AD717A"/>
</svg>
