<svg width="123" height="5" viewBox="0 0 123 5" fill="none" xmlns="http://www.w3.org/2000/svg">
<path d="M1.17158 0.0254245C1.86084 -0.0397074 2.76434 0.0299344 3.451 0.125522C3.66619 0.155168 3.55723 0.287688 3.70578 0.31412C3.99632 0.365646 4.26699 0.300652 4.55411 0.362032C4.64926 0.383023 4.53082 0.592935 4.63059 0.610139C5.17733 0.702908 5.69456 0.649441 6.24842 0.694062C8.97654 0.914213 11.6582 0.993012 14.4197 1.08865C15.3302 1.12001 16.4371 1.31051 17.3776 1.2272C17.4874 1.21729 17.4219 1.03304 17.4428 1.01785C17.7704 0.785374 17.6615 1.15734 17.8754 1.20676C18.7244 1.40188 19.6685 1.41886 20.4856 1.34775C20.8332 1.31696 20.4847 0.950988 20.8347 1.1564C20.859 1.17028 20.7708 1.36594 20.8661 1.38681C21.0823 1.43375 21.4925 1.39877 21.66 1.41428C21.983 1.44514 22.0364 1.44317 22.3418 1.4454C22.7593 1.45015 23.2559 1.54741 23.7039 1.50308C23.7995 1.49304 23.673 1.29246 23.8254 1.25833C23.9781 1.22425 24.3819 1.24126 24.518 1.28854C24.6542 1.33585 24.5962 1.4935 24.6203 1.52963C24.8185 1.83462 25.2856 1.41221 25.3457 1.40176C26.4414 1.22377 27.3811 1.4644 28.4096 1.46371C29.1904 1.46268 30.0254 1.38324 30.7683 1.39413C31.6535 1.40789 32.4037 1.51658 33.2636 1.49789C33.3543 1.49615 33.248 1.26032 33.3588 1.25772C34.5364 1.23028 35.7058 1.25599 36.8784 1.41519C36.996 1.43136 36.8444 1.63842 36.9619 1.66696C37.6812 1.83712 38.8193 2.24589 39.2465 1.34439C39.7337 1.37959 40.3252 1.41596 40.7611 1.59769C41.0421 1.71464 40.7691 1.94021 41.1144 1.84396C41.1922 1.82252 41.091 1.62498 41.2078 1.60776C41.6994 1.53544 42.2365 1.59965 42.7228 1.49759C42.8218 1.47636 42.7947 1.29936 42.8228 1.26749C43.0583 1.00935 43.4505 1.43606 43.536 1.46707C44.1869 1.69829 44.6623 1.6073 45.2688 1.61294C45.4095 1.61435 45.2431 1.3766 45.3785 1.36941C46.0809 1.33534 46.8084 1.35577 47.4961 1.46127C47.6491 1.48531 47.5084 1.68783 47.5815 1.70968C47.9038 1.80356 47.9752 1.42104 48.2844 1.50369C48.3495 1.52062 48.3128 1.694 48.3247 1.71304C48.5107 2.01194 48.6724 1.58842 48.7203 1.57907C49.3256 1.45131 49.7125 1.89345 50.2973 1.83084C50.3672 1.8229 50.2095 1.60353 50.4061 1.59463C51.7162 1.53407 53.1018 1.59434 54.3986 1.7698C54.6002 1.79679 54.4563 1.96159 54.469 1.9819C54.6758 2.29932 54.8096 1.87402 54.8753 1.858C55.394 1.7427 55.8785 2.09937 56.2309 1.5928C58.4274 1.7686 60.6139 1.48413 62.7923 1.93796C62.82 1.94321 62.7703 2.15267 62.8256 2.16226C63.491 2.27987 63.3632 1.95433 63.8034 1.55618C63.9143 1.4562 64.2517 1.9369 64.2816 1.97213C64.3903 2.10198 64.2775 2.4136 64.3139 2.43875C64.6153 2.63621 64.5662 1.60565 64.9727 1.60531C64.9854 1.60703 64.932 1.79672 64.9661 1.81558C65.0721 1.87479 65.1773 1.79942 65.281 1.86471C65.5184 2.0158 65.6029 2.51656 65.9656 2.22512C66.0114 2.1873 65.9414 1.60272 66.3043 1.63034C66.449 1.64184 67.0895 1.63182 67.269 1.66971C67.4483 1.70754 67.3252 1.89592 67.338 1.90408C67.8211 2.15318 67.6379 2.25642 67.8799 2.62521C68.1219 2.99261 68.0548 2.11633 68.1535 2.01852C68.2523 1.92099 68.6065 2.12652 68.6935 2.19796C68.7805 2.26944 68.672 2.38914 68.7494 2.42959C69.2623 2.69386 68.9745 1.99464 69.1435 1.85556C69.542 1.52624 69.8523 2.1761 70.2171 2.23977C70.3157 2.25697 70.2352 2.10896 70.3231 2.09512C70.6712 2.04226 70.8805 2.24503 71.2765 2.05911C71.3413 2.02881 71.6614 1.6381 71.8687 1.92483C71.898 1.96618 71.8146 2.12812 71.963 2.16439C72.1846 2.21883 72.5839 2.25423 72.8221 2.2001C72.998 2.16005 72.7964 1.89321 73.0178 1.9761C73.1161 2.01312 72.9338 2.16922 73.1186 2.22573C73.3025 2.28223 73.7726 2.27538 73.9515 2.26999C74.13 2.26448 74.0323 2.06206 74.0467 2.04843C74.134 1.97032 74.4767 1.87271 74.507 1.87295C76.0345 1.84824 77.4431 2.18943 78.9303 2.0765C79.047 2.06794 78.9692 1.85449 78.987 1.85098C79.3866 1.76155 79.0716 2.32906 79.3507 2.51901C79.3103 2.08586 79.4751 2.16429 79.7565 2.11679C79.8921 2.09354 79.8183 1.92583 79.8307 1.90866C80.0318 1.65392 80.1719 1.98295 80.2079 2.05026C80.3411 2.29786 80.4861 2.0053 80.5767 2.1708C80.6673 2.33507 80.4588 2.57858 80.7287 2.57547C80.8044 2.42041 80.604 2.01522 80.809 1.94955C81.5822 1.70115 83.0255 2.01907 83.6472 2.05209C84.2677 2.08509 84.4681 2.05648 84.8296 2.11252C85.4827 2.21383 85.2434 1.91321 85.6489 1.7756C86.0556 1.63801 85.8579 2.3777 85.9163 2.53671C85.9737 2.69565 86.0363 2.53204 86.1077 2.61941C86.1789 2.70676 86.0249 2.81488 86.1922 2.84768C86.3596 2.88045 86.8174 2.59769 86.8768 2.43142C87.0022 2.07918 86.796 1.70948 87.239 1.83938C87.2645 1.84709 87.1818 2.04159 87.2794 2.06125C88.0543 2.21098 88.8594 2.22026 89.6334 2.35269C89.7398 2.3712 89.6446 2.58757 89.7066 2.60079C90.3517 2.73919 90.1211 2.37436 90.4747 1.96908C90.3953 2.50842 90.5908 2.83839 91.0804 2.84158C91.3748 2.84368 91.3241 2.60812 91.5144 2.4421C91.5716 2.39206 91.7798 2.5538 91.8176 2.44302C91.942 2.0809 91.7458 1.67553 92.2506 1.83694C92.2728 1.84461 92.2022 2.04283 92.2788 2.05484C92.7735 2.13341 92.8326 1.75464 93.3673 1.70877C93.7865 1.67278 94.5319 1.90375 95.0091 1.94131C94.9991 2.54769 95.4498 2.40883 95.6327 1.99075C95.9424 2.00787 96.2769 1.98423 96.5763 2.04202C96.6793 2.06172 96.6116 2.23728 96.6246 2.25625C96.8238 2.55383 96.9585 2.14708 97.0253 2.13113C97.7498 1.97612 98.3402 2.2844 99.0316 1.98312C99.0562 1.97227 99.0959 1.55106 99.2808 1.85861C99.2927 1.87981 99.0643 2.07145 99.3896 2.08627C99.715 2.10112 100.328 2.32692 100.78 2.13174C100.889 2.08475 101.166 1.74282 101.388 2.00998C101.417 2.04625 101.385 2.16706 101.427 2.23428C101.565 2.44848 101.641 2.02274 101.803 2.38443C101.965 2.74609 102.302 3.01696 102.758 2.76742C102.772 2.76017 102.88 2.42273 103.023 2.42807C103.252 2.43687 103.576 2.50717 103.815 2.50497C103.93 2.5038 103.856 2.29426 103.876 2.29043C104.645 2.17302 105.192 2.35981 106.015 2.44088C106.166 2.45616 106.6 2.17043 106.892 2.39633C107.213 2.64361 106.883 3.67228 107.621 3.42721C107.918 3.32918 108.295 2.02413 108.83 2.70028C109.866 2.53274 110.825 2.87879 111.865 2.63955C111.912 2.62895 112.06 2.26472 112.169 2.26968C112.333 2.27774 112.422 2.44798 112.539 2.45919C113.027 2.51047 113.474 2.36482 113.944 2.38748C114.123 2.39571 114.061 2.57173 114.274 2.58157C114.487 2.59124 114.629 2.35946 114.918 2.4714C115.136 2.55673 115.354 3.03049 115.643 3.08572C115.654 2.6184 115.853 2.62803 116.206 2.50466C116.274 2.48073 116.201 2.31808 116.233 2.29837C116.364 2.21454 116.485 2.34934 116.609 2.25808C116.639 2.23617 116.641 2.07657 116.665 2.04965C116.875 1.81462 117.221 2.17361 117.281 2.23611C117.508 2.47349 117.615 2.26592 117.789 2.3594C117.964 2.45287 117.703 2.56971 117.906 2.62643C118.329 2.74375 118.871 2.71797 119.3 2.72531C119.471 2.72725 119.354 2.51422 119.378 2.50955C119.732 2.45552 120.09 2.68212 120.286 2.25778C120.531 3.35497 120.499 2.15136 121.005 2.371C121.045 2.38876 121.095 2.90762 120.942 2.98379C120.789 3.05989 120.558 2.8977 120.345 3.01644C120.295 3.04431 120.007 3.53051 119.968 3.55996C119.661 3.79013 119.617 3.01478 119.601 2.97219C119.416 2.51261 119.065 3.0364 118.972 3.0726C118.548 3.23843 118.189 3.12939 117.834 3.24777C117.603 3.32427 117.58 3.83216 117.398 3.81661C116.793 3.76523 116.582 3.05672 116.012 3.67104C115.89 3.80207 116.011 4.35717 115.573 3.92068C115.546 3.89316 115.22 3.49384 115.033 3.74642C115.009 3.77827 115.01 3.94004 114.979 3.95363C114.77 4.04154 114.631 3.91266 114.404 3.97439C114.177 4.03611 113.904 4.12813 113.644 4.07326C113.488 4.04045 113.287 3.73904 113.213 3.66524C113.001 3.45266 112.775 3.80121 112.644 3.54378C112.512 3.28507 112.77 2.89216 112.424 2.725C112.411 3.14531 112.382 3.57672 112.361 3.99941C111.602 3.98461 110.856 3.8487 110.095 3.86727C110.001 3.86999 110.097 4.09595 109.996 4.1047C109.569 4.14059 109.197 3.97951 108.754 4.04366C108.412 4.09418 108.036 4.33342 107.678 4.3937C107.459 3.91274 106.927 4.07602 106.541 4.03206C106.406 4.01688 106.415 3.88842 106.319 3.84652C105.956 3.69153 106.126 4.11655 106.027 4.18343C105.6 4.46889 105.563 3.50689 105.06 3.53066C105.033 3.5316 104.707 4.04438 104.663 4.07632C104.377 4.28454 104.615 3.89783 104.437 3.85995C104.111 3.79071 103.885 3.66825 103.502 3.81844C103.391 3.86293 103.123 4.18254 102.907 3.93532C102.878 3.90295 102.894 3.73346 102.871 3.72353C102.456 3.55807 102.445 4.09065 102.208 4.27102C101.971 4.45135 101.605 4.0837 101.53 3.97774C101.335 3.70363 101.68 3.8606 101.69 3.8337C101.814 3.51358 101.547 3.5687 101.343 3.54165C101.313 3.01945 101.028 3.0508 101.131 3.51571C101.143 3.56649 101.302 3.51779 101.343 3.54165C101.164 4.05399 100.85 4.11961 100.504 3.64083C100.341 3.41643 100.495 3.1548 100.002 3.25051C99.7783 3.29372 99.8647 3.65328 99.6674 3.7513C99.2166 3.97496 98.6307 3.63956 98.1659 3.69241C97.9972 3.71159 98.1616 3.90841 98.0463 3.92831C97.7403 3.98172 97.4705 3.83404 97.1632 3.90969C97.1354 3.91679 97.2034 4.12282 97.1079 4.12545C96.3835 4.14938 95.7528 4.01741 94.9964 4.01375C94.631 4.01208 93.9777 4.12571 93.5991 4.10287C92.943 4.06449 92.1359 3.76489 91.5754 3.83767C91.2099 3.88426 91.2901 4.09033 91.1334 4.23073C90.8312 4.5029 90.2962 4.01539 90.2241 3.9399C90.2219 3.9374 90.5365 3.88882 90.3686 3.78304C90.2711 3.56263 90.2277 3.93895 90.2241 3.9399C90.1768 3.89114 89.5484 3.84436 89.4236 3.88375C89.3559 3.90528 89.3938 4.10052 89.3584 4.10805C88.5182 4.28278 87.6765 4.3324 86.8242 4.24111C86.8092 4.23717 86.8318 4.01878 86.7965 4.01223C86.3032 3.91513 85.9873 4.18229 85.5804 4.3409C85.1735 4.49945 84.8509 4.44635 84.61 4.07143C84.3031 4.11864 83.8627 3.95289 83.6092 3.85232C83.3558 3.75175 83.3204 4.17686 83.2981 4.18526C82.6026 4.45425 82.2006 4.21092 81.479 4.17306C81.136 4.15432 80.4555 4.21598 80.084 4.26247C79.7905 4.29992 79.6136 4.20029 79.3432 4.264C79.3066 4.2725 79.3435 4.46179 79.3324 4.46907C79.0305 4.69554 79.1756 4.23281 79.1133 4.15017C78.8873 3.84964 78.7477 3.68958 78.3611 3.83095C78.272 3.86333 78.0122 4.5296 77.8497 4.56856C77.6383 4.618 77.7181 4.37918 77.4968 4.43703C77.4779 4.44176 77.4818 4.5891 77.3453 4.5826C76.7113 4.55438 76.0202 4.46865 75.3615 4.48342C75.2715 4.48487 75.3868 4.71856 75.2568 4.72451C74.6468 4.75221 73.9781 4.74356 73.3837 4.63417C73.2374 4.60652 73.3292 4.44289 73.2974 4.39431C73.1025 4.10035 72.8259 4.52746 72.7803 4.5356C71.6921 4.74086 70.8593 4.35432 69.7502 4.53835C69.6898 4.54915 69.2251 5.00703 69.0178 4.61434C69.0036 4.58821 68.7984 4.18644 68.6171 4.46114C68.6058 4.47833 68.7336 4.68516 68.5105 4.66408C68.2875 4.64305 67.9285 4.78117 67.6219 4.55391C67.5248 4.48232 67.2953 4.08155 67.0058 4.40102C66.9869 4.42332 66.5399 5.1457 66.3803 4.6473C66.3545 4.56526 66.3816 4.03783 66.0359 4.30825C65.9699 4.36067 66.0898 4.47832 65.9158 4.55178C65.6493 4.665 65.2961 4.52373 64.9685 4.75869C64.9113 4.80028 64.6681 5.15826 64.473 4.88655C64.4424 4.844 64.5005 4.66792 64.3975 4.64821C63.9075 4.55369 63.3944 4.67147 62.8969 4.54964C62.7207 4.50683 62.8108 4.22218 62.6271 4.14589C62.4434 4.06964 62.0733 3.99628 61.8811 4.12636C61.6888 4.2565 61.8988 4.71018 61.6108 4.74648C60.3587 4.90415 59.1183 4.63801 57.8679 4.59908C57.6825 4.59327 57.8362 4.7556 57.563 4.75869C56.5554 4.77076 54.8159 4.92297 53.9416 4.57802C53.2411 4.30174 54.1226 4.0914 53.5874 3.97896C53.3291 3.92533 53.0496 4.45278 52.9872 4.46938C52.3781 4.63806 51.9547 4.40441 51.4065 4.47609C51.2933 4.49097 51.4043 4.70475 51.3079 4.71505C50.9788 4.75212 50.6329 4.6567 50.3184 4.67415C50.1773 4.68247 50.2033 4.84575 50.0735 4.83315C49.7628 4.80488 49.4881 4.73624 49.1852 4.58321C49.1576 4.56927 49.3438 4.36616 49.1139 4.3586C48.7419 4.34695 48.2802 4.19599 47.8522 4.35189C47.7252 4.39879 47.7203 4.77195 47.4473 4.51424C47.39 4.46042 47.4631 4.01233 47.1451 4.3995C47.0916 4.46383 46.5575 4.98605 46.2954 4.64943C46.2262 4.56084 46.0497 4.19417 45.897 4.25179C45.8763 4.26099 45.9593 4.46143 45.8327 4.48098C45.3868 4.54639 44.9194 4.52501 44.4612 4.58779C44.3389 4.60495 44.5211 4.81236 44.3388 4.83132C43.8373 4.88374 43.2113 4.83093 42.721 4.76601C42.5402 4.74168 42.6651 4.56986 42.652 4.55117C42.4404 4.24704 42.3154 4.65754 42.2452 4.68148C41.8085 4.8248 41.476 4.63197 41.0736 4.683C40.9625 4.69656 41.0412 4.89229 41.0191 4.90975C40.7898 5.08027 40.9606 4.72877 40.8155 4.69002C40.4089 4.58031 39.9556 4.59604 39.5444 4.62105C39.3934 4.63053 39.5631 4.85748 39.4276 4.86336C38.6253 4.90247 37.7913 4.88075 37.0083 4.75563C36.8609 4.73166 36.9537 4.5569 36.9229 4.51699C36.7112 4.23773 36.4008 4.61864 36.3294 4.65493C36.0047 4.8206 35.8786 4.66606 35.5918 4.6949C34.191 4.83852 32.4613 4.73617 31.139 4.67293C29.4159 4.59155 28.0788 4.42529 26.4357 4.46846C26.3312 4.47099 26.4365 4.70348 26.3465 4.70864C25.1842 4.76468 24.0399 4.67384 22.8753 4.74099C22.7797 4.74608 22.9175 4.96648 22.7641 4.98207C22.4495 5.0156 22.0509 5.00362 21.7328 4.93325C21.5776 4.89934 21.7857 4.71022 21.6296 4.67995C21.2659 4.60905 20.8761 4.59335 20.5025 4.62868C20.3435 4.6442 20.5834 4.86961 20.3768 4.87221C18.9693 4.89457 17.587 4.9334 16.1647 4.6415C16.0672 4.62145 15.9816 4.16333 15.7743 4.25118C15.7587 4.37832 15.7595 4.52788 15.7527 4.66378C13.7038 4.73698 11.6758 4.57816 9.62109 4.55361C9.53446 4.55263 9.68418 4.79536 9.51646 4.7947C8.54574 4.79111 7.60311 4.85835 6.61018 4.61708C6.51166 4.59349 6.56221 4.16645 6.27188 4.23104C6.22068 4.24282 5.78341 4.29978 5.67035 4.39248C5.655 4.40646 5.73478 4.60578 5.59387 4.61159C4.77505 4.64186 3.91697 4.59635 3.09956 4.47457C2.96764 4.45453 3.10813 4.24227 3.01416 4.22616C2.34765 4.11348 1.62266 4.27484 0.985775 4.08211C0.559463 3.95235 0.717296 3.58543 0.49076 3.22427C0.458719 3.17331 0.194734 3.16524 0.181082 2.9551C0.146035 2.4267 0.273901 1.84811 0.221434 1.28488C0.210349 1.16357 -0.143195 1.29423 0.0661259 1.00107C0.0807492 0.981448 0.33707 0.88415 0.400203 0.784699C0.444157 0.715941 0.364949 0.502235 0.454631 0.414217C0.544304 0.326282 0.642845 0.505422 0.791523 0.40201C0.940134 0.297318 0.874789 0.0542033 1.17158 0.0254245ZM82.4681 3.40279C82.2334 3.19864 82.1988 3.94638 82.4526 3.76748C82.4649 3.75794 82.4802 3.41281 82.4681 3.40279ZM110.86 3.28469C110.554 2.95489 110.344 3.43983 110.56 3.69454C110.776 3.94898 110.954 3.38467 110.86 3.28469ZM114.042 3.04391C113.683 2.78387 113.627 3.84419 114.011 3.62984C114.033 3.61773 114.063 3.05901 114.042 3.04391ZM1.54132 3.12142C1.53808 3.11149 1.34832 3.10182 1.34378 3.11166C1.24274 3.34914 1.62218 3.36832 1.54132 3.12142ZM117.198 2.78176C117.087 2.63833 116.764 2.80391 116.903 2.98226C117.015 3.12575 117.338 2.96018 117.198 2.78176ZM70.2269 2.60476C70.2232 2.59362 70.0872 2.58359 70.0899 2.64657C70.0992 2.84943 70.2885 2.79218 70.2269 2.60476ZM122.564 2.76956C121.771 2.72964 121.29 1.85377 122.154 1.9526C122.31 1.97049 121.817 2.23191 122.016 2.31088C122.38 2.45474 122.622 1.9048 122.993 2.19949C123.06 2.25343 122.609 2.77378 122.562 2.77078C122.563 2.77037 122.563 2.76996 122.564 2.76956ZM82.333 2.50466C82.3283 2.49478 82.1399 2.4854 82.1354 2.4952C82.0334 2.73259 82.4128 2.75162 82.333 2.50466ZM62.2884 2.14242C62.278 2.12135 61.8409 2.10165 61.8267 2.12106C61.5987 2.50925 62.4823 2.55024 62.2884 2.14242ZM95.0166 1.95749C95.2221 1.71868 95.4679 1.69056 95.6317 1.99045C95.4275 1.97453 95.222 1.97218 95.0166 1.95749Z" fill="#AD717A"/>
</svg>
