<svg width="628" height="5" viewBox="0 0 628 5" fill="none" xmlns="http://www.w3.org/2000/svg">
<path d="M6.47221 0.0254245C9.98574 -0.0397074 14.5914 0.0299344 18.0917 0.125522C19.1887 0.155168 18.6332 0.287688 19.3904 0.31412C20.8715 0.365646 22.2513 0.300652 23.7148 0.362032C24.1999 0.383023 23.5961 0.592935 24.1047 0.610139C26.8918 0.702908 29.5284 0.649441 32.3517 0.694062C46.2584 0.914213 59.9284 0.993012 74.0052 1.08865C78.6468 1.12001 84.2891 1.31051 89.0833 1.2272C89.6429 1.21729 89.3093 1.03304 89.4157 1.01785C91.0858 0.785374 90.5305 1.15734 91.621 1.20676C95.9489 1.40188 100.762 1.41886 104.927 1.34775C106.699 1.31696 104.922 0.950988 106.706 1.1564C106.83 1.17028 106.38 1.36594 106.866 1.38681C107.968 1.43375 110.059 1.39877 110.913 1.41428C112.559 1.44514 112.832 1.44317 114.389 1.4454C116.517 1.45015 119.049 1.54741 121.332 1.50308C121.82 1.49304 121.174 1.29246 121.952 1.25833C122.73 1.22425 124.788 1.24126 125.482 1.28854C126.176 1.33585 125.881 1.4935 126.003 1.52963C127.014 1.83462 129.395 1.41221 129.701 1.40176C135.287 1.22377 140.077 1.4644 145.32 1.46371C149.3 1.46268 153.556 1.38324 157.343 1.39413C161.856 1.40789 165.68 1.51658 170.063 1.49789C170.526 1.49615 169.984 1.26032 170.549 1.25772C176.552 1.23028 182.513 1.25599 188.49 1.41519C189.089 1.43136 188.317 1.63842 188.915 1.66696C192.582 1.83712 198.384 2.24589 200.561 1.34439C203.045 1.37959 206.06 1.41596 208.282 1.59769C209.715 1.71464 208.323 1.94021 210.083 1.84396C210.48 1.82252 209.964 1.62498 210.559 1.60776C213.065 1.53544 215.803 1.59965 218.282 1.49759C218.786 1.47636 218.649 1.29936 218.792 1.26749C219.992 1.00935 221.991 1.43606 222.427 1.46707C225.746 1.69829 228.169 1.6073 231.26 1.61294C231.978 1.61435 231.13 1.3766 231.82 1.36941C235.4 1.33534 239.109 1.35577 242.614 1.46127C243.394 1.48531 242.677 1.68783 243.049 1.70968C244.693 1.80356 245.057 1.42104 246.632 1.50369C246.965 1.52062 246.777 1.694 246.838 1.71304C247.786 2.01194 248.611 1.58842 248.854 1.57907C251.94 1.45131 253.912 1.89345 256.893 1.83084C257.25 1.8229 256.446 1.60353 257.448 1.59463C264.127 1.53407 271.19 1.59434 277.8 1.7698C278.828 1.79679 278.094 1.96159 278.159 1.9819C279.213 2.29932 279.895 1.87402 280.23 1.858C282.874 1.7427 285.344 2.09937 287.14 1.5928C298.337 1.7686 309.483 1.48413 320.588 1.93796C320.729 1.94321 320.476 2.15267 320.757 2.16226C324.149 2.27987 323.498 1.95433 325.742 1.55618C326.307 1.4562 328.027 1.9369 328.179 1.97213C328.734 2.10198 328.159 2.4136 328.344 2.43875C329.88 2.63621 329.63 1.60565 331.702 1.60531C331.767 1.60703 331.495 1.79672 331.669 1.81558C332.209 1.87479 332.745 1.79942 333.274 1.86471C334.484 2.0158 334.915 2.51656 336.763 2.22512C336.997 2.1873 336.64 1.60272 338.49 1.63034C339.228 1.64184 342.493 1.63182 343.408 1.66971C344.322 1.70754 343.694 1.89592 343.76 1.90408C346.222 2.15318 345.288 2.25642 346.522 2.62521C347.756 2.99261 347.414 2.11633 347.916 2.01852C348.42 1.92099 350.226 2.12652 350.669 2.19796C351.113 2.26944 350.56 2.38914 350.954 2.42959C353.569 2.69386 352.102 1.99464 352.963 1.85556C354.994 1.52624 356.576 2.1761 358.436 2.23977C358.939 2.25697 358.528 2.10896 358.976 2.09512C360.751 2.04226 361.818 2.24503 363.836 2.05911C364.167 2.02881 365.799 1.6381 366.855 1.92483C367.005 1.96618 366.579 2.12812 367.336 2.16439C368.465 2.21883 370.501 2.25423 371.715 2.2001C372.612 2.16005 371.584 1.89321 372.712 1.9761C373.214 2.01312 372.284 2.16922 373.227 2.22573C374.164 2.28223 376.56 2.27538 377.472 2.26999C378.382 2.26448 377.884 2.06206 377.958 2.04843C378.403 1.97032 380.15 1.87271 380.304 1.87295C388.09 1.84824 395.271 2.18943 402.852 2.0765C403.447 2.06794 403.05 1.85449 403.141 1.85098C405.178 1.76155 403.572 2.32906 404.995 2.51901C404.789 2.08586 405.629 2.16429 407.064 2.11679C407.755 2.09354 407.379 1.92583 407.442 1.90866C408.467 1.65392 409.181 1.98295 409.365 2.05026C410.044 2.29786 410.783 2.0053 411.245 2.1708C411.707 2.33507 410.644 2.57858 412.02 2.57547C412.405 2.42041 411.384 2.01522 412.429 1.94955C416.37 1.70115 423.728 2.01907 426.897 2.05209C430.06 2.08509 431.081 2.05648 432.924 2.11252C436.253 2.21383 435.033 1.91321 437.1 1.7756C439.173 1.63801 438.166 2.3777 438.464 2.53671C438.756 2.69565 439.076 2.53204 439.439 2.61941C439.802 2.70676 439.017 2.81488 439.87 2.84768C440.724 2.88045 443.057 2.59769 443.36 2.43142C443.999 2.07918 442.948 1.70948 445.206 1.83938C445.336 1.84709 444.915 2.04159 445.412 2.06125C449.362 2.21098 453.466 2.22026 457.412 2.35269C457.954 2.3712 457.469 2.58757 457.785 2.60079C461.073 2.73919 459.898 2.37436 461.7 1.96908C461.295 2.50842 462.292 2.83839 464.788 2.84158C466.288 2.84368 466.03 2.60812 467 2.4421C467.292 2.39206 468.353 2.5538 468.546 2.44302C469.18 2.0809 468.18 1.67553 470.753 1.83694C470.866 1.84461 470.507 2.04283 470.897 2.05484C473.418 2.13341 473.72 1.75464 476.446 1.70877C478.582 1.67278 482.382 1.90375 484.815 1.94131C484.763 2.54769 487.061 2.40883 487.993 1.99075C489.572 2.00787 491.277 1.98423 492.803 2.04202C493.329 2.06172 492.983 2.23728 493.05 2.25625C494.065 2.55383 494.752 2.14708 495.092 2.13113C498.786 1.97612 501.795 2.2844 505.32 1.98312C505.445 1.97227 505.648 1.55106 506.59 1.85861C506.651 1.87981 505.487 2.07145 507.145 2.08627C508.803 2.10112 511.929 2.32692 514.232 2.13174C514.789 2.08475 516.198 1.74282 517.329 2.00998C517.48 2.04625 517.315 2.16706 517.532 2.23428C518.236 2.44848 518.62 2.02274 519.446 2.38443C520.272 2.74609 521.991 3.01696 524.313 2.76742C524.387 2.76017 524.937 2.42273 525.667 2.42807C526.833 2.43687 528.487 2.50717 529.704 2.50497C530.287 2.5038 529.914 2.29426 530.015 2.29043C533.933 2.17302 536.722 2.35981 540.92 2.44088C541.689 2.45616 543.9 2.17043 545.39 2.39633C547.025 2.64361 545.345 3.67228 549.104 3.42721C550.621 3.32918 552.541 2.02413 555.266 2.70028C560.551 2.53274 565.439 2.87879 570.738 2.63955C570.977 2.62895 571.73 2.26472 572.291 2.26968C573.122 2.27774 573.579 2.44798 574.173 2.45919C576.662 2.51047 578.939 2.36482 581.339 2.38748C582.25 2.39571 581.931 2.57173 583.018 2.58157C584.104 2.59124 584.828 2.35946 586.3 2.4714C587.411 2.55673 588.522 3.03049 589.997 3.08572C590.054 2.6184 591.067 2.62803 592.868 2.50466C593.214 2.48073 592.843 2.31808 593.006 2.29837C593.673 2.21454 594.289 2.34934 594.922 2.25808C595.076 2.23617 595.083 2.07657 595.209 2.04965C596.279 1.81462 598.042 2.17361 598.345 2.23611C599.505 2.47349 600.047 2.26592 600.938 2.3594C601.826 2.45287 600.497 2.56971 601.536 2.62643C603.687 2.74375 606.452 2.71797 608.637 2.72531C609.509 2.72725 608.914 2.51422 609.039 2.50955C610.842 2.45552 612.665 2.68212 613.664 2.25778C614.914 3.35497 614.752 2.15136 617.329 2.371C617.532 2.38876 617.79 2.90762 617.011 2.98379C616.231 3.05989 615.049 2.8977 613.968 3.01644C613.712 3.04431 612.245 3.53051 612.045 3.55996C610.477 3.79013 610.255 3.01478 610.172 2.97219C609.232 2.51261 607.439 3.0364 606.967 3.0726C604.808 3.23843 602.973 3.12939 601.167 3.24777C599.986 3.32427 599.87 3.83216 598.943 3.81661C595.859 3.76523 594.783 3.05672 591.877 3.67104C591.254 3.80207 591.873 4.35717 589.641 3.92068C589.501 3.89316 587.843 3.49384 586.886 3.74642C586.765 3.77827 586.769 3.94004 586.611 3.95363C585.547 4.04154 584.839 3.91266 583.681 3.97439C582.523 4.03611 581.13 4.12813 579.808 4.07326C579.012 4.04045 577.989 3.73904 577.608 3.66524C576.531 3.45266 575.376 3.80121 574.709 3.54378C574.036 3.28507 575.351 2.89216 573.587 2.725C573.522 3.14531 573.372 3.57672 573.267 3.99941C569.4 3.98461 565.596 3.8487 561.716 3.86727C561.236 3.86999 561.727 4.09595 561.212 4.1047C559.036 4.14059 557.136 3.97951 554.881 4.04366C553.135 4.09418 551.22 4.33342 549.394 4.3937C548.279 3.91274 545.569 4.07602 543.601 4.03206C542.911 4.01688 542.957 3.88842 542.467 3.84652C540.617 3.69153 541.484 4.11655 540.977 4.18343C538.801 4.46889 538.615 3.50689 536.05 3.53066C535.914 3.5316 534.253 4.04438 534.024 4.07632C532.57 4.28454 533.783 3.89783 532.874 3.85995C531.212 3.79071 530.058 3.66825 528.109 3.81844C527.541 3.86293 526.177 4.18254 525.074 3.93532C524.929 3.90295 525.009 3.73346 524.892 3.72353C522.777 3.55807 522.721 4.09065 521.512 4.27102C520.303 4.45135 518.436 4.0837 518.056 3.97774C517.062 3.70363 518.818 3.8606 518.872 3.8337C519.504 3.51358 518.142 3.5687 517.102 3.54165C516.951 3.01945 515.496 3.0508 516.023 3.51571C516.083 3.56649 516.893 3.51779 517.102 3.54165C516.189 4.05399 514.589 4.11961 512.823 3.64083C511.996 3.41643 512.778 3.1548 510.266 3.25051C509.126 3.29372 509.567 3.65328 508.561 3.7513C506.263 3.97496 503.276 3.63956 500.907 3.69241C500.047 3.71159 500.885 3.90841 500.297 3.92831C498.737 3.98172 497.362 3.83404 495.796 3.90969C495.654 3.91679 496 4.12282 495.513 4.12545C491.821 4.14938 488.605 4.01741 484.75 4.01375C482.887 4.01208 479.557 4.12571 477.627 4.10287C474.283 4.06449 470.168 3.76489 467.311 3.83767C465.448 3.88426 465.857 4.09033 465.058 4.23073C463.517 4.5029 460.79 4.01539 460.423 3.9399C460.412 3.9374 462.015 3.88882 461.16 3.78304C460.662 3.56263 460.441 3.93895 460.423 3.9399C460.182 3.89114 456.979 3.84436 456.342 3.88375C455.997 3.90528 456.19 4.10052 456.01 4.10805C451.727 4.28278 447.436 4.3324 443.092 4.24111C443.015 4.23717 443.13 4.01878 442.951 4.01223C440.436 3.91513 438.825 4.18229 436.751 4.3409C434.677 4.49945 433.032 4.44635 431.805 4.07143C430.24 4.11864 427.995 3.95289 426.703 3.85232C425.411 3.75175 425.231 4.17686 425.117 4.18526C421.572 4.45425 419.522 4.21092 415.844 4.17306C414.095 4.15432 410.627 4.21598 408.733 4.26247C407.237 4.29992 406.335 4.20029 404.957 4.264C404.77 4.2725 404.959 4.46179 404.902 4.46907C403.363 4.69554 404.102 4.23281 403.785 4.15017C402.633 3.84964 401.921 3.68958 399.951 3.83095C399.496 3.86333 398.172 4.5296 397.343 4.56856C396.266 4.618 396.673 4.37918 395.545 4.43703C395.448 4.44176 395.468 4.5891 394.772 4.5826C391.541 4.55438 388.018 4.46865 384.66 4.48342C384.201 4.48487 384.789 4.71856 384.126 4.72451C381.016 4.75221 377.608 4.74356 374.578 4.63417C373.832 4.60652 374.3 4.44289 374.138 4.39431C373.144 4.10035 371.735 4.52746 371.502 4.5356C365.955 4.74086 361.71 4.35432 356.056 4.53835C355.748 4.54915 353.379 5.00703 352.322 4.61434C352.25 4.58821 351.204 4.18644 350.28 4.46114C350.222 4.47833 350.874 4.68516 349.737 4.66408C348.6 4.64305 346.77 4.78117 345.207 4.55391C344.712 4.48232 343.542 4.08155 342.066 4.40102C341.97 4.42332 339.691 5.1457 338.878 4.6473C338.746 4.56526 338.884 4.03783 337.122 4.30825C336.786 4.36067 337.397 4.47832 336.51 4.55178C335.151 4.665 333.351 4.52373 331.681 4.75869C331.39 4.80028 330.15 5.15826 329.155 4.88655C328.999 4.844 329.295 4.66792 328.77 4.64821C326.272 4.55369 323.657 4.67147 321.121 4.54964C320.223 4.50683 320.682 4.22218 319.746 4.14589C318.809 4.06964 316.922 3.99628 315.943 4.12636C314.963 4.2565 316.033 4.71018 314.565 4.74648C308.182 4.90415 301.859 4.63801 295.485 4.59908C294.54 4.59327 295.324 4.7556 293.931 4.75869C288.795 4.77076 279.927 4.92297 275.471 4.57802C271.9 4.30174 276.393 4.0914 273.665 3.97896C272.348 3.92533 270.923 4.45278 270.606 4.46938C267.5 4.63806 265.342 4.40441 262.548 4.47609C261.97 4.49097 262.537 4.70475 262.045 4.71505C260.368 4.75212 258.604 4.6567 257.001 4.67415C256.282 4.68247 256.414 4.84575 255.752 4.83315C254.169 4.80488 252.769 4.73624 251.225 4.58321C251.084 4.56927 252.033 4.36616 250.861 4.3586C248.965 4.34695 246.611 4.19599 244.43 4.35189C243.782 4.39879 243.757 4.77195 242.365 4.51424C242.074 4.46042 242.446 4.01233 240.825 4.3995C240.553 4.46383 237.83 4.98605 236.494 4.64943C236.141 4.56084 235.241 4.19417 234.463 4.25179C234.357 4.26099 234.78 4.46143 234.135 4.48098C231.862 4.54639 229.479 4.52501 227.144 4.58779C226.52 4.60495 227.449 4.81236 226.52 4.83132C223.964 4.88374 220.772 4.83093 218.273 4.76601C217.351 4.74168 217.988 4.56986 217.921 4.55117C216.843 4.24704 216.205 4.65754 215.847 4.68148C213.622 4.8248 211.927 4.63197 209.875 4.683C209.309 4.69656 209.71 4.89229 209.598 4.90975C208.429 5.08027 209.299 4.72877 208.559 4.69002C206.487 4.58031 204.176 4.59604 202.08 4.62105C201.31 4.63053 202.175 4.85748 201.484 4.86336C197.395 4.90247 193.143 4.88075 189.152 4.75563C188.401 4.73166 188.874 4.5569 188.717 4.51699C187.637 4.23773 186.055 4.61864 185.691 4.65493C184.036 4.8206 183.393 4.66606 181.931 4.6949C174.79 4.83852 165.974 4.73617 159.233 4.67293C150.449 4.59155 143.633 4.42529 135.257 4.46846C134.725 4.47099 135.262 4.70348 134.803 4.70864C128.878 4.76468 123.045 4.67384 117.108 4.74099C116.621 4.74608 117.323 4.96648 116.541 4.98207C114.937 5.0156 112.906 5.00362 111.284 4.93325C110.493 4.89934 111.554 4.71022 110.758 4.67995C108.904 4.60905 106.917 4.59335 105.013 4.62868C104.202 4.6442 105.425 4.86961 104.372 4.87221C97.1971 4.89457 90.1507 4.9334 82.9004 4.6415C82.4034 4.62145 81.9672 4.16333 80.9104 4.25118C80.8308 4.37832 80.8351 4.52788 80.8004 4.66378C70.3559 4.73698 60.018 4.57816 49.5441 4.55361C49.1025 4.55263 49.8657 4.79536 49.0107 4.7947C44.0624 4.79111 39.2573 4.85835 34.1958 4.61708C33.6936 4.59349 33.9512 4.16645 32.4713 4.23104C32.2103 4.24282 29.9813 4.29978 29.405 4.39248C29.3267 4.40646 29.7334 4.60578 29.0151 4.61159C24.8411 4.64186 20.467 4.59635 16.3002 4.47457C15.6277 4.45453 16.3439 4.24227 15.8649 4.22616C12.4673 4.11348 8.77163 4.27484 5.52505 4.08211C3.3519 3.95235 4.15646 3.58543 3.00168 3.22427C2.83835 3.17331 1.49267 3.16524 1.42308 2.9551C1.24442 2.4267 1.89623 1.84811 1.62877 1.28488C1.57227 1.16357 -0.229945 1.29423 0.837081 1.00107C0.911624 0.981448 2.21824 0.88415 2.54006 0.784699C2.76412 0.715941 2.36035 0.502235 2.81751 0.414217C3.27463 0.326282 3.77694 0.505422 4.53483 0.40201C5.29239 0.297318 4.95929 0.0542033 6.47221 0.0254245ZM420.886 3.40279C419.69 3.19864 419.513 3.94638 420.807 3.76748C420.87 3.75794 420.948 3.41281 420.886 3.40279ZM565.617 3.28469C564.054 2.95489 562.984 3.43983 564.087 3.69454C565.19 3.94898 566.094 3.38467 565.617 3.28469ZM581.834 3.04391C580.006 2.78387 579.719 3.84419 581.676 3.62984C581.79 3.61773 581.941 3.05901 581.834 3.04391ZM8.35696 3.12142C8.34045 3.11149 7.37312 3.10182 7.35001 3.11166C6.83492 3.34914 8.76918 3.36832 8.35696 3.12142ZM597.926 2.78176C597.356 2.63833 595.713 2.80391 596.422 2.98226C596.992 3.12575 598.637 2.96018 597.926 2.78176ZM358.486 2.60476C358.467 2.59362 357.774 2.58359 357.788 2.64657C357.835 2.84943 358.8 2.79218 358.486 2.60476ZM625.277 2.76956C621.236 2.72964 618.786 1.85377 623.186 1.9526C623.983 1.97049 621.469 2.23191 622.483 2.31088C624.339 2.45474 625.571 1.9048 627.465 2.19949C627.808 2.25343 625.507 2.77378 625.269 2.77078C625.272 2.77037 625.274 2.76996 625.277 2.76956ZM420.197 2.50466C420.173 2.49478 419.213 2.4854 419.19 2.4952C418.67 2.73259 420.604 2.75162 420.197 2.50466ZM318.019 2.14242C317.966 2.12135 315.738 2.10165 315.665 2.12106C314.503 2.50925 319.007 2.55024 318.019 2.14242ZM484.853 1.95749C485.9 1.71868 487.154 1.69056 487.989 1.99045C486.948 1.97453 485.9 1.97218 484.853 1.95749Z" fill="#AD717A"/>
</svg>
