<svg width="453" height="6" viewBox="0 0 453 6" fill="none" xmlns="http://www.w3.org/2000/svg">
<path d="M5.19766 0.525119C7.73054 0.459987 11.0507 0.529629 13.574 0.625217C14.3649 0.654863 13.9644 0.787383 14.5103 0.813815C15.578 0.86534 16.5727 0.800347 17.6278 0.861727C17.9774 0.882717 17.5422 1.09263 17.9088 1.10983C19.918 1.2026 21.8187 1.14914 23.854 1.19376C33.8793 1.41391 43.7339 1.49271 53.8818 1.58835C57.2278 1.6197 61.2953 1.81021 64.7514 1.7269C65.1549 1.71698 64.9143 1.53273 64.9911 1.51755C66.195 1.28507 65.7947 1.65703 66.5808 1.70645C69.7008 1.90158 73.1702 1.91855 76.1728 1.84744C77.4502 1.81665 76.1695 1.45068 77.4557 1.6561C77.545 1.66998 77.2209 1.86564 77.5712 1.8865C78.3656 1.93344 79.8729 1.89847 80.4886 1.91397C81.6752 1.94484 81.8716 1.94287 82.9939 1.9451C84.5283 1.94985 86.3532 2.04711 87.9994 2.00278C88.3508 1.99273 87.8856 1.79216 88.446 1.75803C89.0069 1.72395 90.4908 1.74096 90.991 1.78824C91.4914 1.83554 91.2783 1.99319 91.3669 2.02933C92.0954 2.33432 93.8118 1.9119 94.0326 1.90146C98.0592 1.72346 101.512 1.96409 105.292 1.96341C108.161 1.96238 111.229 1.88294 113.96 1.89383C117.212 1.90758 119.969 2.01627 123.129 1.99759C123.463 1.99585 123.072 1.76002 123.479 1.75742C127.807 1.72997 132.104 1.75568 136.413 1.91489C136.845 1.93106 136.288 2.13812 136.72 2.16665C139.363 2.33682 143.545 2.74559 145.115 1.84408C146.906 1.87929 149.079 1.91566 150.681 2.09738C151.714 2.21434 150.711 2.43991 151.979 2.34366C152.265 2.32221 151.893 2.12467 152.322 2.10745C154.129 2.03513 156.103 2.09935 157.89 1.99728C158.254 1.97606 158.154 1.79905 158.257 1.76718C159.123 1.50905 160.564 1.93576 160.878 1.96677C163.27 2.19798 165.017 2.10699 167.246 2.11264C167.763 2.11405 167.152 1.87629 167.649 1.86911C170.23 1.83503 172.904 1.85547 175.431 1.96097C175.993 1.98501 175.476 2.18753 175.745 2.20938C176.929 2.30325 177.192 1.92074 178.328 2.00339C178.567 2.02032 178.432 2.19369 178.476 2.21274C179.16 2.51164 179.753 2.08811 179.929 2.07876C182.154 1.951 183.576 2.39314 185.725 2.33053C185.982 2.3226 185.402 2.10322 186.125 2.09433C190.939 2.03377 196.031 2.09403 200.796 2.2695C201.537 2.29648 201.008 2.46128 201.055 2.4816C201.815 2.79901 202.306 2.37371 202.548 2.35769C204.454 2.2424 206.234 2.59907 207.529 2.0925C215.601 2.26829 223.636 1.98383 231.641 2.43765C231.743 2.44291 231.561 2.65237 231.764 2.66195C234.209 2.77956 233.739 2.45402 235.357 2.05588C235.765 1.9559 237.004 2.43659 237.114 2.47183C237.514 2.60167 237.099 2.9133 237.233 2.93844C238.34 3.1359 238.16 2.10534 239.654 2.10501C239.701 2.10673 239.504 2.29641 239.63 2.31527C240.019 2.37449 240.406 2.29911 240.787 2.36441C241.659 2.5155 241.97 3.01626 243.302 2.72482C243.471 2.68699 243.214 2.10242 244.547 2.13003C245.079 2.14154 247.433 2.13152 248.092 2.1694C248.751 2.20724 248.299 2.39562 248.346 2.40378C250.121 2.65287 249.448 2.75611 250.337 3.1249C251.227 3.4923 250.98 2.61602 251.343 2.51822C251.706 2.42069 253.007 2.62621 253.327 2.69766C253.647 2.76914 253.248 2.88884 253.532 2.92929C255.417 3.19356 254.36 2.49433 254.981 2.35525C256.445 2.02594 257.585 2.67579 258.926 2.73947C259.288 2.75666 258.993 2.60866 259.315 2.59481C260.595 2.54195 261.364 2.74473 262.819 2.5588C263.057 2.52851 264.234 2.1378 264.995 2.42453C265.103 2.46587 264.797 2.62781 265.342 2.66409C266.156 2.71853 267.623 2.75393 268.499 2.6998C269.145 2.65975 268.404 2.3929 269.218 2.4758C269.579 2.51281 268.909 2.66891 269.589 2.72543C270.264 2.78193 271.992 2.77507 272.649 2.76968C273.305 2.76417 272.946 2.56176 272.999 2.54812C273.32 2.47001 274.579 2.37241 274.691 2.37265C280.304 2.34794 285.48 2.68912 290.945 2.5762C291.374 2.56763 291.088 2.35418 291.154 2.35068C292.622 2.26125 291.464 2.82875 292.49 3.0187C292.342 2.58556 292.947 2.66399 293.981 2.61648C294.48 2.59324 294.208 2.42552 294.254 2.40835C294.993 2.15361 295.508 2.48264 295.64 2.54995C296.13 2.79756 296.662 2.505 296.995 2.6705C297.328 2.83476 296.562 3.07828 297.554 3.07516C297.832 2.92011 297.096 2.51492 297.849 2.44925C300.69 2.20085 305.994 2.51876 308.279 2.55179C310.559 2.58478 311.295 2.55617 312.624 2.61221C315.024 2.71353 314.144 2.4129 315.635 2.2753C317.129 2.13771 316.403 2.87739 316.617 3.0364C316.828 3.19534 317.059 3.03173 317.321 3.11911C317.582 3.20646 317.016 3.31458 317.631 3.34738C318.246 3.38014 319.929 3.09738 320.147 2.93112C320.608 2.57887 319.85 2.20918 321.478 2.33908C321.572 2.34679 321.268 2.54128 321.626 2.56094C324.474 2.71067 327.432 2.71995 330.277 2.85238C330.668 2.8709 330.318 3.08727 330.546 3.10049C332.917 3.23888 332.069 2.87406 333.368 2.46878C333.077 3.00812 333.795 3.33809 335.594 3.34127C336.676 3.34338 336.49 3.10782 337.189 2.9418C337.399 2.89175 338.165 3.05349 338.303 2.94271C338.76 2.58059 338.04 2.17522 339.895 2.33664C339.976 2.34431 339.717 2.54253 339.998 2.55453C341.816 2.63311 342.033 2.25433 343.998 2.20846C345.539 2.17247 348.278 2.40344 350.031 2.44101C349.995 3.04738 351.651 2.90853 352.323 2.49045C353.461 2.50756 354.69 2.48393 355.79 2.54171C356.169 2.56142 355.92 2.73698 355.968 2.75595C356.7 3.05352 357.195 2.64677 357.441 2.63083C360.103 2.47582 362.272 2.7841 364.813 2.48282C364.904 2.47196 365.05 2.05076 365.729 2.3583C365.773 2.3795 364.934 2.57115 366.129 2.58596C367.325 2.60082 369.578 2.82662 371.238 2.63144C371.64 2.58445 372.656 2.24251 373.471 2.50967C373.58 2.54595 373.461 2.66675 373.617 2.73397C374.124 2.94817 374.401 2.52244 374.997 2.88412C375.593 3.24579 376.832 3.51665 378.506 3.26712C378.559 3.25986 378.955 2.92243 379.482 2.92776C380.322 2.93657 381.515 3.00686 382.392 3.00466C382.812 3.00349 382.543 2.79396 382.616 2.79013C385.441 2.67271 387.451 2.85951 390.477 2.94058C391.032 2.95585 392.626 2.67013 393.7 2.89602C394.879 3.14331 393.667 4.17198 396.378 3.9269C397.471 3.82888 398.855 2.52383 400.819 3.19998C404.629 3.03243 408.153 3.37848 411.973 3.13925C412.145 3.12865 412.688 2.76442 413.092 2.76937C413.692 2.77744 414.021 2.94767 414.449 2.95889C416.243 3.01017 417.885 2.86452 419.615 2.88717C420.272 2.8954 420.042 3.07143 420.826 3.08126C421.608 3.09094 422.13 2.85915 423.191 2.9711C423.993 3.05642 424.793 3.53019 425.857 3.58541C425.898 3.11809 426.628 3.12772 427.926 3.00436C428.176 2.98042 427.908 2.81777 428.026 2.79806C428.507 2.71423 428.951 2.84903 429.407 2.75778C429.518 2.73586 429.523 2.57627 429.614 2.54934C430.385 2.31432 431.656 2.6733 431.875 2.73581C432.711 2.97319 433.102 2.76562 433.744 2.8591C434.384 2.95256 433.426 3.0694 434.175 3.12612C435.726 3.24344 437.719 3.21767 439.294 3.225C439.923 3.22694 439.494 3.01391 439.584 3.00924C440.883 2.95521 442.198 3.18182 442.918 2.75747C443.82 3.85466 443.702 2.65105 445.56 2.87069C445.706 2.88846 445.892 3.40731 445.331 3.48348C444.769 3.55958 443.917 3.3974 443.137 3.51614C442.953 3.544 441.895 4.0302 441.751 4.05965C440.621 4.28983 440.461 3.51447 440.401 3.47189C439.723 3.01231 438.431 3.5361 438.091 3.57229C436.534 3.73813 435.211 3.62909 433.909 3.74746C433.058 3.82397 432.974 4.33185 432.306 4.31631C430.083 4.26492 429.307 3.55642 427.212 4.17074C426.763 4.30176 427.209 4.85687 425.6 4.42037C425.499 4.39285 424.304 3.99354 423.614 4.24612C423.527 4.27796 423.53 4.43974 423.415 4.45333C422.649 4.54124 422.138 4.41235 421.303 4.47408C420.469 4.53581 419.465 4.62783 418.512 4.57296C417.937 4.54015 417.2 4.23873 416.925 4.16494C416.149 3.95236 415.317 4.3009 414.836 4.04348C414.351 3.78476 415.299 3.39186 414.027 3.2247C413.98 3.64501 413.872 4.07641 413.796 4.49911C411.009 4.48431 408.266 4.3484 405.469 4.36697C405.123 4.36969 405.477 4.59565 405.106 4.60439C403.538 4.64029 402.168 4.47921 400.542 4.54336C399.283 4.59387 397.902 4.83312 396.586 4.89339C395.782 4.41244 393.829 4.57571 392.41 4.53176C391.913 4.51657 391.946 4.38812 391.593 4.34621C390.259 4.19123 390.884 4.61624 390.519 4.68313C388.95 4.96859 388.816 4.00659 386.967 4.03036C386.869 4.03129 385.671 4.54408 385.506 4.57601C384.458 4.78424 385.333 4.39753 384.677 4.35964C383.479 4.2904 382.647 4.16794 381.242 4.31814C380.832 4.36262 379.85 4.68224 379.054 4.43502C378.949 4.40265 379.007 4.23315 378.923 4.22323C377.398 4.05777 377.358 4.59034 376.487 4.77071C375.615 4.95104 374.269 4.5834 373.995 4.47744C373.278 4.20333 374.544 4.36029 374.583 4.3334C375.039 4.01328 374.057 4.06839 373.307 4.04134C373.198 3.51915 372.15 3.55049 372.529 4.0154C372.573 4.06618 373.156 4.01749 373.307 4.04134C372.649 4.55369 371.496 4.6193 370.222 4.14053C369.626 3.91613 370.19 3.65449 368.379 3.75021C367.558 3.79341 367.875 4.15297 367.15 4.251C365.493 4.47466 363.34 4.13925 361.632 4.1921C361.012 4.21129 361.616 4.40811 361.193 4.428C360.068 4.48141 359.077 4.33373 357.947 4.40938C357.845 4.41649 358.095 4.62252 357.744 4.62514C355.082 4.64907 352.764 4.51711 349.985 4.51345C348.642 4.51178 346.241 4.62541 344.85 4.60256C342.439 4.56418 339.473 4.26458 337.413 4.33736C336.07 4.38395 336.365 4.59002 335.789 4.73043C334.678 5.00259 332.712 4.51509 332.448 4.4396C332.44 4.4371 333.596 4.38852 332.979 4.28274C332.62 4.06232 332.461 4.43864 332.448 4.4396C332.274 4.39083 329.965 4.34405 329.506 4.38344C329.257 4.40497 329.396 4.60021 329.266 4.60775C326.179 4.78247 323.085 4.83209 319.954 4.7408C319.899 4.73686 319.982 4.51847 319.852 4.51192C318.039 4.41482 316.878 4.68198 315.383 4.8406C313.888 4.99914 312.702 4.94604 311.817 4.57113C310.689 4.61833 309.071 4.45258 308.139 4.35201C307.208 4.25144 307.078 4.67655 306.996 4.68496C304.44 4.95395 302.963 4.71062 300.311 4.67275C299.05 4.65402 296.55 4.71568 295.185 4.76217C294.106 4.79962 293.456 4.69999 292.462 4.76369C292.328 4.7722 292.464 4.96148 292.423 4.96877C291.313 5.19523 291.847 4.7325 291.617 4.64986C290.787 4.34933 290.274 4.18927 288.854 4.33065C288.526 4.36303 287.571 5.02929 286.974 5.06826C286.197 5.11769 286.491 4.87888 285.677 4.93673C285.608 4.94146 285.622 5.08879 285.12 5.08229C282.791 5.05408 280.251 4.96835 277.83 4.98311C277.5 4.98457 277.924 5.21826 277.446 5.2242C275.204 5.2519 272.747 5.24325 270.563 5.13387C270.025 5.10621 270.362 4.94259 270.245 4.894C269.529 4.60004 268.513 5.02716 268.345 5.0353C264.346 5.24055 261.286 4.85401 257.21 5.03804C256.988 5.04885 255.281 5.50673 254.519 5.11403C254.466 5.08791 253.713 4.68614 253.046 4.96084C253.005 4.97802 253.474 5.18486 252.655 5.16378C251.835 5.14274 250.516 5.28087 249.389 5.05361C249.032 4.98202 248.189 4.58124 247.125 4.90072C247.056 4.92302 245.413 5.6454 244.827 5.14699C244.732 5.06495 244.831 4.53752 243.561 4.80794C243.318 4.86037 243.759 4.97801 243.12 5.05147C242.14 5.16469 240.842 5.02343 239.638 5.25838C239.428 5.29998 238.535 5.65796 237.818 5.38625C237.705 5.34369 237.919 5.16761 237.54 5.14791C235.739 5.05338 233.854 5.17116 232.026 5.04934C231.378 5.00653 231.709 4.72187 231.034 4.64559C230.359 4.56933 228.999 4.49598 228.293 4.62606C227.586 4.7562 228.358 5.20987 227.3 5.24617C222.698 5.40384 218.14 5.1377 213.545 5.09877C212.864 5.09296 213.429 5.2553 212.425 5.25838C208.722 5.27046 202.33 5.42267 199.117 5.07772C196.543 4.80143 199.782 4.59109 197.815 4.47866C196.866 4.42503 195.839 4.95247 195.61 4.96907C193.371 5.13775 191.816 4.9041 189.801 4.97579C189.385 4.99066 189.793 5.20444 189.439 5.21474C188.229 5.25181 186.958 5.15639 185.802 5.17385C185.284 5.18217 185.379 5.34545 184.902 5.33284C183.76 5.30457 182.751 5.23594 181.638 5.08291C181.537 5.06896 182.221 4.86585 181.376 4.8583C180.009 4.84665 178.312 4.69568 176.74 4.85158C176.273 4.89848 176.255 5.27164 175.251 5.01394C175.041 4.96011 175.31 4.51202 174.141 4.89919C173.945 4.96353 171.982 5.48575 171.018 5.14913C170.764 5.06053 170.116 4.69386 169.555 4.75149C169.479 4.76068 169.783 4.96112 169.318 4.98067C167.68 5.04609 165.962 5.0247 164.278 5.08748C163.829 5.10464 164.498 5.31206 163.828 5.33101C161.986 5.38344 159.685 5.33063 157.883 5.2657C157.219 5.24138 157.678 5.06956 157.63 5.05086C156.852 4.74674 156.393 5.15724 156.135 5.18117C154.53 5.3245 153.308 5.13167 151.829 5.1827C151.421 5.19626 151.711 5.39199 151.629 5.40944C150.787 5.57997 151.414 5.22846 150.881 5.18972C149.387 5.08 147.721 5.09574 146.21 5.12075C145.655 5.13022 146.279 5.35718 145.781 5.36306C142.833 5.40216 139.768 5.38045 136.89 5.25533C136.349 5.23136 136.69 5.0566 136.577 5.01668C135.798 4.73742 134.658 5.11834 134.395 5.15462C133.202 5.3203 132.739 5.16575 131.685 5.1946C126.537 5.33822 120.181 5.23586 115.322 5.17263C108.99 5.09124 104.076 4.92499 98.038 4.96816C97.6542 4.97068 98.0412 5.20317 97.7104 5.20833C93.4392 5.26438 89.2342 5.17353 84.9544 5.24068C84.6032 5.24578 85.1095 5.46618 84.5458 5.48177C83.3895 5.51529 81.9249 5.50331 80.7559 5.43294C80.1857 5.39903 80.9505 5.20991 80.3765 5.17965C79.0401 5.10874 77.6076 5.09304 76.2349 5.12838C75.6507 5.14389 76.5321 5.3693 75.7728 5.37191C70.6006 5.39427 65.5209 5.43309 60.2942 5.14119C59.9359 5.12115 59.6215 4.66302 58.8597 4.75087C58.8023 4.87802 58.8054 5.02758 58.7803 5.16347C51.251 5.23668 43.7984 5.07786 36.2479 5.0533C35.9295 5.05232 36.4797 5.29506 35.8634 5.29439C32.2962 5.2908 28.8322 5.35805 25.1834 5.11678C24.8214 5.09318 25.0071 4.66615 23.9402 4.73073C23.7521 4.74252 22.1452 4.79947 21.7297 4.89217C21.6733 4.90615 21.9665 5.10548 21.4487 5.11129C18.4397 5.14155 15.2864 5.09605 12.2826 4.97426C11.7978 4.95423 12.3141 4.74196 11.9688 4.72585C9.51946 4.61317 6.8553 4.77453 4.51486 4.58181C2.94825 4.45204 3.52825 4.08513 2.69578 3.72396C2.57803 3.67301 1.60794 3.66493 1.55777 3.4548C1.42898 2.9264 1.89886 2.3478 1.70606 1.78458C1.66532 1.66326 0.366122 1.79392 1.13533 1.50076C1.18907 1.48114 2.131 1.38384 2.363 1.28439C2.52452 1.21564 2.23345 1.00193 2.56301 0.913912C2.89254 0.825977 3.25466 1.00512 3.80102 0.901705C4.34714 0.797013 4.107 0.553898 5.19766 0.525119ZM303.946 3.90249C303.083 3.69833 302.956 4.44607 303.889 4.26717C303.934 4.25764 303.99 3.9125 303.946 3.90249ZM408.282 3.78439C407.154 3.45458 406.383 3.93953 407.178 4.19424C407.973 4.44867 408.625 3.88436 408.282 3.78439ZM419.972 3.5436C418.655 3.28357 418.447 4.34389 419.858 4.12954C419.94 4.11743 420.049 3.5587 419.972 3.5436ZM6.55637 3.62112C6.54446 3.61119 5.84712 3.60151 5.83046 3.61135C5.45914 3.84883 6.85353 3.86802 6.55637 3.62112ZM431.573 3.28146C431.162 3.13803 429.977 3.3036 430.488 3.48196C430.9 3.62544 432.085 3.45988 431.573 3.28146ZM258.962 3.10446C258.948 3.09331 258.448 3.08328 258.458 3.14627C258.492 3.34913 259.188 3.29187 258.962 3.10446ZM451.29 3.26925C448.376 3.22934 446.61 2.35346 449.783 2.4523C450.357 2.47018 448.545 2.73161 449.276 2.81057C450.614 2.95444 451.502 2.40449 452.867 2.69918C453.115 2.75312 451.456 3.27347 451.284 3.27047C451.286 3.27007 451.288 3.26966 451.29 3.26925ZM303.449 3.00436C303.432 2.99447 302.74 2.9851 302.723 2.9949C302.349 3.23228 303.743 3.25131 303.449 3.00436ZM229.789 2.64212C229.751 2.62105 228.145 2.60134 228.093 2.62075C227.255 3.00894 230.502 3.04993 229.789 2.64212ZM350.059 2.45718C350.814 2.21837 351.718 2.19025 352.32 2.49014C351.569 2.47422 350.814 2.47188 350.059 2.45718Z" fill="#AD717A"/>
</svg>
