<?xml version="1.0" encoding="utf-8"?>
<!-- Generator: Adobe Illustrator 23.0.5, SVG Export Plug-In . SVG Version: 6.00 Build 0)  -->
<svg version="1.1" id="Layer_1" xmlns="http://www.w3.org/2000/svg" xmlns:xlink="http://www.w3.org/1999/xlink" x="0px" y="0px"
	 viewBox="0 0 16 16" style="enable-background:new 0 0 16 16;" xml:space="preserve">
<style type="text/css">
	.st0{fill:#FFFFFF;}
</style>
<path class="st0" d="M2.5,1C1.7,1,1,1.7,1,2.5v11C1,14.3,1.7,15,2.5,15h6.1c0.4,0,0.8-0.2,1.1-0.4l4.9-4.9C14.8,9.4,15,9,15,8.6V2.5
	C15,1.7,14.3,1,13.5,1H2.5z M2,2.5C2,2.2,2.2,2,2.5,2h11C13.8,2,14,2.2,14,2.5V8H9.5C8.7,8,8,8.7,8,9.5V14H2.5C2.2,14,2,13.8,2,13.5
	V2.5z M9,13.8V9.5C9,9.2,9.2,9,9.5,9h4.3L9,13.8z"/>
</svg>
