<?xml version="1.0" encoding="UTF-8"?>
<svg id="Layer_1" xmlns="http://www.w3.org/2000/svg" version="1.1" viewBox="0 0 595.28 181.33">
  <!-- Generator: Adobe Illustrator 29.6.1, SVG Export Plug-In . SVG Version: 2.1.1 Build 9)  -->
  <defs>
    <style>
      .st0 {
        fill: #fff;
      }
    </style>
  </defs>
  <path class="st0" d="M88.8,141.82c-10.59,0-15.88-5.08-15.88-15.25v-37.75c9.78-4.24,20.65-7.92,32.25-10.16l-5.62-29.16c-9.37,1.8-18.28,4.37-26.64,7.37v-22.44h-33.84v38.16c-20.5,11.75-33.21,23.24-34.13,24.09l20.03,21.93c.13-.12,5.27-4.73,14.09-10.85v19.86c0,13.79,3.97,24.79,11.91,33.01,7.94,8.22,18.73,12.32,32.38,12.32,10.17,0,19.22-1.67,27.16-5.01v-27.93c-7.39,2.79-17.13,1.82-21.73,1.82Z"/>
  <path class="st0" d="M186.95,132.42c-5.99,6.68-12.19,10.03-18.59,10.03-5.71,0-10.24-1.81-13.58-5.43-3.34-3.62-5.02-8.91-5.02-15.88V48.67h-33.84v77.69c0,14.35,3.97,25.7,11.91,34.06,7.94,8.36,18.38,12.53,31.34,12.53,10.03,0,19.29-3.27,27.79-9.82v7.11h33.85V48.67h-33.85v83.75Z"/>
  <path class="st0" d="M299.15,144.4c-10.59,0-15.88-5.08-15.88-15.25v-62.16c21.42-7.91,45.19-21.29,62.96-43.91l-23.35-18.35c-11,14-25.4,23.56-39.61,30.08V7.56h-33.84v38.22c-12.02,2.5-20.35,2.92-20.57,2.93l1.13,29.68c.94-.03,8.4-.37,19.45-2.31v54.13c0,13.79,3.97,24.79,11.91,33.01,7.94,8.22,18.73,12.32,32.38,12.32,10.17,0,19.22-1.67,27.16-5.01v-27.99c-7.39,2.79-17.13,1.88-21.73,1.88Z"/>
  <path class="st0" d="M375.84,45.73c-15.12,0-27.44,5.98-36.96,17.93-9.52,11.95-14.28,27.14-14.28,45.56s4.96,33.86,14.89,45.81c9.92,11.95,22.85,17.92,38.78,17.92,11.61,0,21.64-3.44,30.08-10.33,8.44-6.88,14.14-16.22,17.11-28.01h-33.21c-2.97,4.32-7.83,6.48-14.58,6.48-12.15,0-19.58-7.39-22.28-22.16h71.09c.4-3.15.61-7.72.61-13.69,0-17.93-4.79-32.32-14.38-43.2-9.59-10.87-21.87-16.31-36.86-16.31ZM355.79,95.77c2.84-13.44,9.79-20.17,20.86-20.17,11.75,0,18.36,6.72,19.85,20.17h-40.71Z"/>
  <rect class="st0" x="435.13" y="4.97" width="34.05" height="165.26"/>
  <path class="st0" d="M555.52,48.96v6.22c-7.7-6.31-16.68-9.46-26.94-9.46-13.37,0-24.85,6.1-34.43,18.3-9.59,12.2-14.38,27.26-14.38,45.19s4.79,32.83,14.38,45.19c9.59,12.36,21.06,18.54,34.43,18.54,9.99,0,18.97-3.23,26.94-9.71v6.48h32.81V48.96h-32.81ZM555.52,127.89c-5.27,7.14-12.02,10.7-20.25,10.7-6.62,0-12.15-2.82-16.61-8.46-4.46-5.64-6.68-12.61-6.68-20.91s2.23-15.27,6.68-20.91,9.99-8.47,16.61-8.47c8.23,0,14.99,3.57,20.25,10.71v37.35Z"/>
</svg>